<svg xmlns="http://www.w3.org/2000/svg" version="1.1" xmlns:xlink="http://www.w3.org/1999/xlink" xmlns:svgjs="http://svgjs.dev/svgjs" width="1440" height="560" preserveAspectRatio="none" viewBox="0 0 1440 560"><g mask="url(&quot;#SvgjsMask1010&quot;)" fill="none"><path d="M-68.59 368.77L-68.59 368.77" stroke="rgba(101, 100, 19, 1)" stroke-width="1.5"></path><path d="M-68.59 368.77L-89.85 509.33" stroke="rgba(101, 100, 19, 1)" stroke-width="1.5"></path><path d="M-68.59 368.77L74.06 342.06" stroke="rgba(101, 100, 19, 1)" stroke-width="1.5"></path><path d="M-68.59 368.77L46.96 538.55" stroke="rgba(101, 100, 19, 1)" stroke-width="1.5"></path><path d="M-68.59 368.77L-68.18 652.22" stroke="rgba(101, 100, 19, 1)" stroke-width="1.5"></path><path d="M-89.85 509.33L-89.85 509.33" stroke="rgba(101, 100, 19, 1)" stroke-width="1.5"></path><path d="M-89.85 509.33L46.96 538.55" stroke="rgba(101, 100, 19, 1)" stroke-width="1.5"></path><path d="M-89.85 509.33L-68.18 652.22" stroke="rgba(101, 100, 19, 1)" stroke-width="1.5"></path><path d="M-68.18 652.22L-68.18 652.22" stroke="rgba(101, 100, 19, 1)" stroke-width="1.5"></path><path d="M-68.18 652.22L48.38 642.41" stroke="rgba(101, 100, 19, 1)" stroke-width="1.5"></path><path d="M-68.18 652.22L46.96 538.55" stroke="rgba(101, 100, 19, 1)" stroke-width="1.5"></path><path d="M-68.18 652.22L74.06 342.06" stroke="rgba(101, 100, 19, 1)" stroke-width="1.5"></path><path d="M-68.18 652.22L228.03 344.58" stroke="rgba(101, 100, 19, 1)" stroke-width="1.5"></path><path d="M74.06 342.06L74.06 342.06" stroke="rgba(101, 100, 19, 1)" stroke-width="1.5"></path><path d="M74.06 342.06L228.03 344.58" stroke="rgba(101, 100, 19, 1)" stroke-width="1.5"></path><path d="M74.06 342.06L46.96 538.55" stroke="rgba(101, 100, 19, 1)" stroke-width="1.5"></path><path d="M74.06 342.06L-89.85 509.33" stroke="rgba(101, 100, 19, 1)" stroke-width="1.5"></path><path d="M74.06 342.06L352.51 356.87" stroke="rgba(101, 100, 19, 1)" stroke-width="1.5"></path><path d="M46.96 538.55L46.96 538.55" stroke="rgba(101, 100, 19, 1)" stroke-width="1.5"></path><path d="M46.96 538.55L48.38 642.41" stroke="rgba(101, 100, 19, 1)" stroke-width="1.5"></path><path d="M48.38 642.41L48.38 642.41" stroke="rgba(101, 100, 19, 1)" stroke-width="1.5"></path><path d="M48.38 642.41L-89.85 509.33" stroke="rgba(101, 100, 19, 1)" stroke-width="1.5"></path><path d="M48.38 642.41L-68.59 368.77" stroke="rgba(101, 100, 19, 1)" stroke-width="1.5"></path><path d="M228.03 344.58L228.03 344.58" stroke="rgba(101, 100, 19, 1)" stroke-width="1.5"></path><path d="M228.03 344.58L352.51 356.87" stroke="rgba(101, 100, 19, 1)" stroke-width="1.5"></path><path d="M228.03 344.58L342.78 523.52" stroke="rgba(101, 100, 19, 1)" stroke-width="1.5"></path><path d="M228.03 344.58L46.96 538.55" stroke="rgba(101, 100, 19, 1)" stroke-width="1.5"></path><path d="M352.51 356.87L352.51 356.87" stroke="rgba(101, 100, 19, 1)" stroke-width="1.5"></path><path d="M352.51 356.87L342.78 523.52" stroke="rgba(101, 100, 19, 1)" stroke-width="1.5"></path><path d="M352.51 356.87L555 373.71" stroke="rgba(101, 100, 19, 1)" stroke-width="1.5"></path><path d="M352.51 356.87L495.3 506.41" stroke="rgba(101, 100, 19, 1)" stroke-width="1.5"></path><path d="M352.51 356.87L639.69 339.74" stroke="rgba(101, 100, 19, 1)" stroke-width="1.5"></path><path d="M342.78 523.52L342.78 523.52" stroke="rgba(101, 100, 19, 1)" stroke-width="1.5"></path><path d="M342.78 523.52L495.3 506.41" stroke="rgba(101, 100, 19, 1)" stroke-width="1.5"></path><path d="M368.83 689.18L368.83 689.18" stroke="rgba(101, 100, 19, 1)" stroke-width="1.5"></path><path d="M368.83 689.18L342.78 523.52" stroke="rgba(101, 100, 19, 1)" stroke-width="1.5"></path><path d="M368.83 689.18L554.21 639.19" stroke="rgba(101, 100, 19, 1)" stroke-width="1.5"></path><path d="M368.83 689.18L495.3 506.41" stroke="rgba(101, 100, 19, 1)" stroke-width="1.5"></path><path d="M368.83 689.18L642.16 692.14" stroke="rgba(101, 100, 19, 1)" stroke-width="1.5"></path><path d="M368.83 689.18L48.38 642.41" stroke="rgba(101, 100, 19, 1)" stroke-width="1.5"></path><path d="M555 373.71L555 373.71" stroke="rgba(101, 100, 19, 1)" stroke-width="1.5"></path><path d="M555 373.71L639.69 339.74" stroke="rgba(101, 100, 19, 1)" stroke-width="1.5"></path><path d="M555 373.71L495.3 506.41" stroke="rgba(101, 100, 19, 1)" stroke-width="1.5"></path><path d="M495.3 506.41L495.3 506.41" stroke="rgba(101, 100, 19, 1)" stroke-width="1.5"></path><path d="M495.3 506.41L554.21 639.19" stroke="rgba(101, 100, 19, 1)" stroke-width="1.5"></path><path d="M495.3 506.41L697.71 522.46" stroke="rgba(101, 100, 19, 1)" stroke-width="1.5"></path><path d="M495.3 506.41L639.69 339.74" stroke="rgba(101, 100, 19, 1)" stroke-width="1.5"></path><path d="M554.21 639.19L554.21 639.19" stroke="rgba(101, 100, 19, 1)" stroke-width="1.5"></path><path d="M554.21 639.19L642.16 692.14" stroke="rgba(101, 100, 19, 1)" stroke-width="1.5"></path><path d="M554.21 639.19L697.71 522.46" stroke="rgba(101, 100, 19, 1)" stroke-width="1.5"></path><path d="M554.21 639.19L342.78 523.52" stroke="rgba(101, 100, 19, 1)" stroke-width="1.5"></path><path d="M554.21 639.19L555 373.71" stroke="rgba(101, 100, 19, 1)" stroke-width="1.5"></path><path d="M639.69 339.74L639.69 339.74" stroke="rgba(101, 100, 19, 1)" stroke-width="1.5"></path><path d="M639.69 339.74L697.71 522.46" stroke="rgba(101, 100, 19, 1)" stroke-width="1.5"></path><path d="M639.69 339.74L845.63 352.78" stroke="rgba(101, 100, 19, 1)" stroke-width="1.5"></path><path d="M639.69 339.74L846.94 202.65" stroke="rgba(101, 100, 19, 1)" stroke-width="1.5"></path><path d="M697.71 522.46L697.71 522.46" stroke="rgba(101, 100, 19, 1)" stroke-width="1.5"></path><path d="M697.71 522.46L852.8 505.19" stroke="rgba(101, 100, 19, 1)" stroke-width="1.5"></path><path d="M697.71 522.46L642.16 692.14" stroke="rgba(101, 100, 19, 1)" stroke-width="1.5"></path><path d="M642.16 692.14L642.16 692.14" stroke="rgba(101, 100, 19, 1)" stroke-width="1.5"></path><path d="M846.94 202.65L846.94 202.65" stroke="rgba(101, 100, 19, 1)" stroke-width="1.5"></path><path d="M846.94 202.65L946.56 187.63" stroke="rgba(101, 100, 19, 1)" stroke-width="1.5"></path><path d="M846.94 202.65L845.63 352.78" stroke="rgba(101, 100, 19, 1)" stroke-width="1.5"></path><path d="M846.94 202.65L960.67 96.69" stroke="rgba(101, 100, 19, 1)" stroke-width="1.5"></path><path d="M845.63 352.78L845.63 352.78" stroke="rgba(101, 100, 19, 1)" stroke-width="1.5"></path><path d="M845.63 352.78L956.02 360.4" stroke="rgba(101, 100, 19, 1)" stroke-width="1.5"></path><path d="M845.63 352.78L852.8 505.19" stroke="rgba(101, 100, 19, 1)" stroke-width="1.5"></path><path d="M852.8 505.19L852.8 505.19" stroke="rgba(101, 100, 19, 1)" stroke-width="1.5"></path><path d="M852.8 505.19L949.72 504.98" stroke="rgba(101, 100, 19, 1)" stroke-width="1.5"></path><path d="M840.21 707.66L840.21 707.66" stroke="rgba(101, 100, 19, 1)" stroke-width="1.5"></path><path d="M840.21 707.66L940.58 707.27" stroke="rgba(101, 100, 19, 1)" stroke-width="1.5"></path><path d="M840.21 707.66L642.16 692.14" stroke="rgba(101, 100, 19, 1)" stroke-width="1.5"></path><path d="M941.43 -53.59L941.43 -53.59" stroke="rgba(101, 100, 19, 1)" stroke-width="1.5"></path><path d="M941.43 -53.59L960.67 96.69" stroke="rgba(101, 100, 19, 1)" stroke-width="1.5"></path><path d="M941.43 -53.59L1128.39 -45.25" stroke="rgba(101, 100, 19, 1)" stroke-width="1.5"></path><path d="M941.43 -53.59L1117.32 67" stroke="rgba(101, 100, 19, 1)" stroke-width="1.5"></path><path d="M941.43 -53.59L946.56 187.63" stroke="rgba(101, 100, 19, 1)" stroke-width="1.5"></path><path d="M941.43 -53.59L846.94 202.65" stroke="rgba(101, 100, 19, 1)" stroke-width="1.5"></path><path d="M941.43 -53.59L1114.07 197.21" stroke="rgba(101, 100, 19, 1)" stroke-width="1.5"></path><path d="M960.67 96.69L960.67 96.69" stroke="rgba(101, 100, 19, 1)" stroke-width="1.5"></path><path d="M960.67 96.69L946.56 187.63" stroke="rgba(101, 100, 19, 1)" stroke-width="1.5"></path><path d="M946.56 187.63L946.56 187.63" stroke="rgba(101, 100, 19, 1)" stroke-width="1.5"></path><path d="M946.56 187.63L1114.07 197.21" stroke="rgba(101, 100, 19, 1)" stroke-width="1.5"></path><path d="M946.56 187.63L956.02 360.4" stroke="rgba(101, 100, 19, 1)" stroke-width="1.5"></path><path d="M946.56 187.63L845.63 352.78" stroke="rgba(101, 100, 19, 1)" stroke-width="1.5"></path><path d="M956.02 360.4L956.02 360.4" stroke="rgba(101, 100, 19, 1)" stroke-width="1.5"></path><path d="M956.02 360.4L949.72 504.98" stroke="rgba(101, 100, 19, 1)" stroke-width="1.5"></path><path d="M956.02 360.4L1126.91 371.41" stroke="rgba(101, 100, 19, 1)" stroke-width="1.5"></path><path d="M949.72 504.98L949.72 504.98" stroke="rgba(101, 100, 19, 1)" stroke-width="1.5"></path><path d="M949.72 504.98L1129.75 540.01" stroke="rgba(101, 100, 19, 1)" stroke-width="1.5"></path><path d="M949.72 504.98L845.63 352.78" stroke="rgba(101, 100, 19, 1)" stroke-width="1.5"></path><path d="M940.58 707.27L940.58 707.27" stroke="rgba(101, 100, 19, 1)" stroke-width="1.5"></path><path d="M940.58 707.27L1106.91 679.23" stroke="rgba(101, 100, 19, 1)" stroke-width="1.5"></path><path d="M940.58 707.27L949.72 504.98" stroke="rgba(101, 100, 19, 1)" stroke-width="1.5"></path><path d="M940.58 707.27L852.8 505.19" stroke="rgba(101, 100, 19, 1)" stroke-width="1.5"></path><path d="M1128.39 -45.25L1128.39 -45.25" stroke="rgba(101, 100, 19, 1)" stroke-width="1.5"></path><path d="M1128.39 -45.25L1117.32 67" stroke="rgba(101, 100, 19, 1)" stroke-width="1.5"></path><path d="M1128.39 -45.25L1246.37 -103.46" stroke="rgba(101, 100, 19, 1)" stroke-width="1.5"></path><path d="M1117.32 67L1117.32 67" stroke="rgba(101, 100, 19, 1)" stroke-width="1.5"></path><path d="M1117.32 67L1114.07 197.21" stroke="rgba(101, 100, 19, 1)" stroke-width="1.5"></path><path d="M1117.32 67L960.67 96.69" stroke="rgba(101, 100, 19, 1)" stroke-width="1.5"></path><path d="M1114.07 197.21L1114.07 197.21" stroke="rgba(101, 100, 19, 1)" stroke-width="1.5"></path><path d="M1126.91 371.41L1126.91 371.41" stroke="rgba(101, 100, 19, 1)" stroke-width="1.5"></path><path d="M1126.91 371.41L1247.85 350.67" stroke="rgba(101, 100, 19, 1)" stroke-width="1.5"></path><path d="M1126.91 371.41L1129.75 540.01" stroke="rgba(101, 100, 19, 1)" stroke-width="1.5"></path><path d="M1126.91 371.41L1114.07 197.21" stroke="rgba(101, 100, 19, 1)" stroke-width="1.5"></path><path d="M1126.91 371.41L949.72 504.98" stroke="rgba(101, 100, 19, 1)" stroke-width="1.5"></path><path d="M1126.91 371.41L1306.22 234.26" stroke="rgba(101, 100, 19, 1)" stroke-width="1.5"></path><path d="M1129.75 540.01L1129.75 540.01" stroke="rgba(101, 100, 19, 1)" stroke-width="1.5"></path><path d="M1129.75 540.01L1254.79 558.58" stroke="rgba(101, 100, 19, 1)" stroke-width="1.5"></path><path d="M1129.75 540.01L1106.91 679.23" stroke="rgba(101, 100, 19, 1)" stroke-width="1.5"></path><path d="M1106.91 679.23L1106.91 679.23" stroke="rgba(101, 100, 19, 1)" stroke-width="1.5"></path><path d="M1246.37 -103.46L1246.37 -103.46" stroke="rgba(101, 100, 19, 1)" stroke-width="1.5"></path><path d="M1246.37 -103.46L1400.51 -99.05" stroke="rgba(101, 100, 19, 1)" stroke-width="1.5"></path><path d="M1246.37 -103.46L1298.51 87.57" stroke="rgba(101, 100, 19, 1)" stroke-width="1.5"></path><path d="M1298.51 87.57L1298.51 87.57" stroke="rgba(101, 100, 19, 1)" stroke-width="1.5"></path><path d="M1298.51 87.57L1306.22 234.26" stroke="rgba(101, 100, 19, 1)" stroke-width="1.5"></path><path d="M1298.51 87.57L1430.09 190.91" stroke="rgba(101, 100, 19, 1)" stroke-width="1.5"></path><path d="M1298.51 87.57L1117.32 67" stroke="rgba(101, 100, 19, 1)" stroke-width="1.5"></path><path d="M1306.22 234.26L1306.22 234.26" stroke="rgba(101, 100, 19, 1)" stroke-width="1.5"></path><path d="M1306.22 234.26L1247.85 350.67" stroke="rgba(101, 100, 19, 1)" stroke-width="1.5"></path><path d="M1306.22 234.26L1430.09 190.91" stroke="rgba(101, 100, 19, 1)" stroke-width="1.5"></path><path d="M1306.22 234.26L1392.85 379.38" stroke="rgba(101, 100, 19, 1)" stroke-width="1.5"></path><path d="M1306.22 234.26L1114.07 197.21" stroke="rgba(101, 100, 19, 1)" stroke-width="1.5"></path><path d="M1247.85 350.67L1247.85 350.67" stroke="rgba(101, 100, 19, 1)" stroke-width="1.5"></path><path d="M1254.79 558.58L1254.79 558.58" stroke="rgba(101, 100, 19, 1)" stroke-width="1.5"></path><path d="M1254.79 558.58L1301.55 659.48" stroke="rgba(101, 100, 19, 1)" stroke-width="1.5"></path><path d="M1254.79 558.58L1416.18 514.39" stroke="rgba(101, 100, 19, 1)" stroke-width="1.5"></path><path d="M1254.79 558.58L1391.35 670.97" stroke="rgba(101, 100, 19, 1)" stroke-width="1.5"></path><path d="M1254.79 558.58L1106.91 679.23" stroke="rgba(101, 100, 19, 1)" stroke-width="1.5"></path><path d="M1301.55 659.48L1301.55 659.48" stroke="rgba(101, 100, 19, 1)" stroke-width="1.5"></path><path d="M1301.55 659.48L1391.35 670.97" stroke="rgba(101, 100, 19, 1)" stroke-width="1.5"></path><path d="M1301.55 659.48L1416.18 514.39" stroke="rgba(101, 100, 19, 1)" stroke-width="1.5"></path><path d="M1400.51 -99.05L1400.51 -99.05" stroke="rgba(101, 100, 19, 1)" stroke-width="1.5"></path><path d="M1400.51 -99.05L1298.51 87.57" stroke="rgba(101, 100, 19, 1)" stroke-width="1.5"></path><path d="M1400.51 -99.05L1611.64 -47.48" stroke="rgba(101, 100, 19, 1)" stroke-width="1.5"></path><path d="M1400.51 -99.05L1603.71 74.22" stroke="rgba(101, 100, 19, 1)" stroke-width="1.5"></path><path d="M1400.51 -99.05L1128.39 -45.25" stroke="rgba(101, 100, 19, 1)" stroke-width="1.5"></path><path d="M1430.09 190.91L1430.09 190.91" stroke="rgba(101, 100, 19, 1)" stroke-width="1.5"></path><path d="M1430.09 190.91L1585.97 242.39" stroke="rgba(101, 100, 19, 1)" stroke-width="1.5"></path><path d="M1392.85 379.38L1392.85 379.38" stroke="rgba(101, 100, 19, 1)" stroke-width="1.5"></path><path d="M1392.85 379.38L1416.18 514.39" stroke="rgba(101, 100, 19, 1)" stroke-width="1.5"></path><path d="M1392.85 379.38L1247.85 350.67" stroke="rgba(101, 100, 19, 1)" stroke-width="1.5"></path><path d="M1416.18 514.39L1416.18 514.39" stroke="rgba(101, 100, 19, 1)" stroke-width="1.5"></path><path d="M1416.18 514.39L1391.35 670.97" stroke="rgba(101, 100, 19, 1)" stroke-width="1.5"></path><path d="M1416.18 514.39L1596.71 557.44" stroke="rgba(101, 100, 19, 1)" stroke-width="1.5"></path><path d="M1416.18 514.39L1561.44 669.97" stroke="rgba(101, 100, 19, 1)" stroke-width="1.5"></path><path d="M1391.35 670.97L1391.35 670.97" stroke="rgba(101, 100, 19, 1)" stroke-width="1.5"></path><path d="M1391.35 670.97L1561.44 669.97" stroke="rgba(101, 100, 19, 1)" stroke-width="1.5"></path><path d="M1611.64 -47.48L1611.64 -47.48" stroke="rgba(101, 100, 19, 1)" stroke-width="1.5"></path><path d="M1611.64 -47.48L1603.71 74.22" stroke="rgba(101, 100, 19, 1)" stroke-width="1.5"></path><path d="M1611.64 -47.48L1585.97 242.39" stroke="rgba(101, 100, 19, 1)" stroke-width="1.5"></path><path d="M1611.64 -47.48L1430.09 190.91" stroke="rgba(101, 100, 19, 1)" stroke-width="1.5"></path><path d="M1603.71 74.22L1603.71 74.22" stroke="rgba(101, 100, 19, 1)" stroke-width="1.5"></path><path d="M1603.71 74.22L1585.97 242.39" stroke="rgba(101, 100, 19, 1)" stroke-width="1.5"></path><path d="M1603.71 74.22L1430.09 190.91" stroke="rgba(101, 100, 19, 1)" stroke-width="1.5"></path><path d="M1603.71 74.22L1581.97 378.78" stroke="rgba(101, 100, 19, 1)" stroke-width="1.5"></path><path d="M1585.97 242.39L1585.97 242.39" stroke="rgba(101, 100, 19, 1)" stroke-width="1.5"></path><path d="M1585.97 242.39L1581.97 378.78" stroke="rgba(101, 100, 19, 1)" stroke-width="1.5"></path><path d="M1581.97 378.78L1581.97 378.78" stroke="rgba(101, 100, 19, 1)" stroke-width="1.5"></path><path d="M1581.97 378.78L1596.71 557.44" stroke="rgba(101, 100, 19, 1)" stroke-width="1.5"></path><path d="M1581.97 378.78L1392.85 379.38" stroke="rgba(101, 100, 19, 1)" stroke-width="1.5"></path><path d="M1596.71 557.44L1596.71 557.44" stroke="rgba(101, 100, 19, 1)" stroke-width="1.5"></path><path d="M1596.71 557.44L1561.44 669.97" stroke="rgba(101, 100, 19, 1)" stroke-width="1.5"></path><path d="M1596.71 557.44L1391.35 670.97" stroke="rgba(101, 100, 19, 1)" stroke-width="1.5"></path><path d="M1596.71 557.44L1392.85 379.38" stroke="rgba(101, 100, 19, 1)" stroke-width="1.5"></path><path d="M1596.71 557.44L1301.55 659.48" stroke="rgba(101, 100, 19, 1)" stroke-width="1.5"></path><path d="M1561.44 669.97L1561.44 669.97" stroke="rgba(101, 100, 19, 1)" stroke-width="1.5"></path><path d="M1561.44 669.97L1301.55 659.48" stroke="rgba(101, 100, 19, 1)" stroke-width="1.5"></path><circle r="5" cx="-68.59" cy="368.77" fill="rgba(101, 100, 19, 1)"></circle><circle r="5" cx="-89.85" cy="509.33" fill="rgba(101, 100, 19, 1)"></circle><circle r="5" cx="-68.18" cy="652.22" fill="rgba(101, 100, 19, 1)"></circle><circle r="5" cx="74.06" cy="342.06" fill="rgba(101, 100, 19, 1)"></circle><circle r="5" cx="46.96" cy="538.55" fill="rgba(101, 100, 19, 1)"></circle><circle r="5" cx="48.38" cy="642.41" fill="rgba(101, 100, 19, 1)"></circle><circle r="5" cx="228.03" cy="344.58" fill="rgba(101, 100, 19, 1)"></circle><circle r="5" cx="352.51" cy="356.87" fill="rgba(101, 100, 19, 1)"></circle><circle r="5" cx="342.78" cy="523.52" fill="rgba(101, 100, 19, 1)"></circle><circle r="5" cx="368.83" cy="689.18" fill="rgba(101, 100, 19, 1)"></circle><circle r="5" cx="555" cy="373.71" fill="rgba(101, 100, 19, 1)"></circle><circle r="5" cx="495.3" cy="506.41" fill="rgba(101, 100, 19, 1)"></circle><circle r="5" cx="554.21" cy="639.19" fill="rgba(101, 100, 19, 1)"></circle><circle r="5" cx="639.69" cy="339.74" fill="rgba(101, 100, 19, 1)"></circle><circle r="5" cx="697.71" cy="522.46" fill="rgba(101, 100, 19, 1)"></circle><circle r="5" cx="642.16" cy="692.14" fill="rgba(101, 100, 19, 1)"></circle><circle r="5" cx="846.94" cy="202.65" fill="rgba(101, 100, 19, 1)"></circle><circle r="5" cx="845.63" cy="352.78" fill="rgba(101, 100, 19, 1)"></circle><circle r="5" cx="852.8" cy="505.19" fill="rgba(101, 100, 19, 1)"></circle><circle r="5" cx="840.21" cy="707.66" fill="rgba(101, 100, 19, 1)"></circle><circle r="5" cx="941.43" cy="-53.59" fill="rgba(101, 100, 19, 1)"></circle><circle r="5" cx="960.67" cy="96.69" fill="rgba(101, 100, 19, 1)"></circle><circle r="5" cx="946.56" cy="187.63" fill="rgba(101, 100, 19, 1)"></circle><circle r="5" cx="956.02" cy="360.4" fill="rgba(101, 100, 19, 1)"></circle><circle r="5" cx="949.72" cy="504.98" fill="rgba(101, 100, 19, 1)"></circle><circle r="5" cx="940.58" cy="707.27" fill="rgba(101, 100, 19, 1)"></circle><circle r="5" cx="1128.39" cy="-45.25" fill="rgba(101, 100, 19, 1)"></circle><circle r="5" cx="1117.32" cy="67" fill="rgba(101, 100, 19, 1)"></circle><circle r="5" cx="1114.07" cy="197.21" fill="rgba(101, 100, 19, 1)"></circle><circle r="5" cx="1126.91" cy="371.41" fill="rgba(101, 100, 19, 1)"></circle><circle r="5" cx="1129.75" cy="540.01" fill="rgba(101, 100, 19, 1)"></circle><circle r="5" cx="1106.91" cy="679.23" fill="rgba(101, 100, 19, 1)"></circle><circle r="5" cx="1246.37" cy="-103.46" fill="rgba(101, 100, 19, 1)"></circle><circle r="5" cx="1298.51" cy="87.57" fill="rgba(101, 100, 19, 1)"></circle><circle r="5" cx="1306.22" cy="234.26" fill="rgba(101, 100, 19, 1)"></circle><circle r="5" cx="1247.85" cy="350.67" fill="rgba(101, 100, 19, 1)"></circle><circle r="5" cx="1254.79" cy="558.58" fill="rgba(101, 100, 19, 1)"></circle><circle r="5" cx="1301.55" cy="659.48" fill="rgba(101, 100, 19, 1)"></circle><circle r="5" cx="1400.51" cy="-99.05" fill="rgba(101, 100, 19, 1)"></circle><circle r="5" cx="1430.09" cy="190.91" fill="rgba(101, 100, 19, 1)"></circle><circle r="5" cx="1392.85" cy="379.38" fill="rgba(101, 100, 19, 1)"></circle><circle r="5" cx="1416.18" cy="514.39" fill="rgba(101, 100, 19, 1)"></circle><circle r="5" cx="1391.35" cy="670.97" fill="rgba(101, 100, 19, 1)"></circle><circle r="5" cx="1611.64" cy="-47.48" fill="rgba(101, 100, 19, 1)"></circle><circle r="5" cx="1603.71" cy="74.22" fill="rgba(101, 100, 19, 1)"></circle><circle r="5" cx="1585.97" cy="242.39" fill="rgba(101, 100, 19, 1)"></circle><circle r="5" cx="1581.97" cy="378.78" fill="rgba(101, 100, 19, 1)"></circle><circle r="5" cx="1596.71" cy="557.44" fill="rgba(101, 100, 19, 1)"></circle><circle r="5" cx="1561.44" cy="669.97" fill="rgba(101, 100, 19, 1)"></circle><path d="M667.24 543.37L667.24 543.37" stroke="hsl(59.60000000000002, 77.2%, 51.5%)" stroke-width="1.5"></path><path d="M667.24 543.37L679.11 678.61" stroke="hsl(59.60000000000002, 77.2%, 51.5%)" stroke-width="1.5"></path><path d="M667.24 543.37L536.13 498.9" stroke="hsl(59.60000000000002, 77.2%, 51.5%)" stroke-width="1.5"></path><path d="M667.24 543.37L711.69 400.76" stroke="hsl(59.60000000000002, 77.2%, 51.5%)" stroke-width="1.5"></path><path d="M667.24 543.37L851.34 557.7" stroke="hsl(59.60000000000002, 77.2%, 51.5%)" stroke-width="1.5"></path><path d="M667.24 543.37L512.19 645.11" stroke="hsl(59.60000000000002, 77.2%, 51.5%)" stroke-width="1.5"></path><path d="M667.24 543.37L855.26 662.63" stroke="hsl(59.60000000000002, 77.2%, 51.5%)" stroke-width="1.5"></path><path d="M970.37 408L970.37 408" stroke="hsl(59.60000000000002, 77.2%, 51.5%)" stroke-width="1.5"></path><path d="M970.37 408L938.05 524.55" stroke="hsl(59.60000000000002, 77.2%, 51.5%)" stroke-width="1.5"></path><path d="M970.37 408L854.46 339.25" stroke="hsl(59.60000000000002, 77.2%, 51.5%)" stroke-width="1.5"></path><path d="M970.37 408L851.34 557.7" stroke="hsl(59.60000000000002, 77.2%, 51.5%)" stroke-width="1.5"></path><path d="M970.37 408L1158.28 346.65" stroke="hsl(59.60000000000002, 77.2%, 51.5%)" stroke-width="1.5"></path><path d="M970.37 408L711.69 400.76" stroke="hsl(59.60000000000002, 77.2%, 51.5%)" stroke-width="1.5"></path><path d="M938.05 524.55L938.05 524.55" stroke="hsl(59.60000000000002, 77.2%, 51.5%)" stroke-width="1.5"></path><path d="M938.05 524.55L851.34 557.7" stroke="hsl(59.60000000000002, 77.2%, 51.5%)" stroke-width="1.5"></path><path d="M938.05 524.55L950.01 681.38" stroke="hsl(59.60000000000002, 77.2%, 51.5%)" stroke-width="1.5"></path><path d="M938.05 524.55L855.26 662.63" stroke="hsl(59.60000000000002, 77.2%, 51.5%)" stroke-width="1.5"></path><path d="M938.05 524.55L854.46 339.25" stroke="hsl(59.60000000000002, 77.2%, 51.5%)" stroke-width="1.5"></path><path d="M938.05 524.55L711.69 400.76" stroke="hsl(59.60000000000002, 77.2%, 51.5%)" stroke-width="1.5"></path><path d="M1153.58 110.84L1153.58 110.84" stroke="hsl(59.60000000000002, 77.2%, 51.5%)" stroke-width="1.5"></path><path d="M1153.58 110.84L1288.03 68.1" stroke="hsl(59.60000000000002, 77.2%, 51.5%)" stroke-width="1.5"></path><path d="M1153.58 110.84L1259.54 248.64" stroke="hsl(59.60000000000002, 77.2%, 51.5%)" stroke-width="1.5"></path><path d="M1153.58 110.84L1284.64 -62.29" stroke="hsl(59.60000000000002, 77.2%, 51.5%)" stroke-width="1.5"></path><path d="M1153.58 110.84L1158.28 346.65" stroke="hsl(59.60000000000002, 77.2%, 51.5%)" stroke-width="1.5"></path><path d="M1153.58 110.84L1404.87 102.39" stroke="hsl(59.60000000000002, 77.2%, 51.5%)" stroke-width="1.5"></path><path d="M1288.03 68.1L1288.03 68.1" stroke="hsl(59.60000000000002, 77.2%, 51.5%)" stroke-width="1.5"></path><path d="M1288.03 68.1L1404.87 102.39" stroke="hsl(59.60000000000002, 77.2%, 51.5%)" stroke-width="1.5"></path><path d="M1288.03 68.1L1284.64 -62.29" stroke="hsl(59.60000000000002, 77.2%, 51.5%)" stroke-width="1.5"></path><path d="M1288.03 68.1L1407.38 200.59" stroke="hsl(59.60000000000002, 77.2%, 51.5%)" stroke-width="1.5"></path><path d="M1288.03 68.1L1413.22 -61.68" stroke="hsl(59.60000000000002, 77.2%, 51.5%)" stroke-width="1.5"></path><path d="M1288.03 68.1L1259.54 248.64" stroke="hsl(59.60000000000002, 77.2%, 51.5%)" stroke-width="1.5"></path><path d="M1284.63 674.09L1284.63 674.09" stroke="hsl(59.60000000000002, 77.2%, 51.5%)" stroke-width="1.5"></path><path d="M1284.63 674.09L1152.76 670.76" stroke="hsl(59.60000000000002, 77.2%, 51.5%)" stroke-width="1.5"></path><path d="M1284.63 674.09L1417.52 704.18" stroke="hsl(59.60000000000002, 77.2%, 51.5%)" stroke-width="1.5"></path><path d="M1284.63 674.09L1254.65 517.37" stroke="hsl(59.60000000000002, 77.2%, 51.5%)" stroke-width="1.5"></path><path d="M1284.63 674.09L1458.38 531.67" stroke="hsl(59.60000000000002, 77.2%, 51.5%)" stroke-width="1.5"></path><path d="M1461.36 343.86L1461.36 343.86" stroke="hsl(59.60000000000002, 77.2%, 51.5%)" stroke-width="1.5"></path><path d="M1461.36 343.86L1581.35 411.76" stroke="hsl(59.60000000000002, 77.2%, 51.5%)" stroke-width="1.5"></path><path d="M1458.38 531.67L1458.38 531.67" stroke="hsl(59.60000000000002, 77.2%, 51.5%)" stroke-width="1.5"></path><path d="M1458.38 531.67L1581.94 550.52" stroke="hsl(59.60000000000002, 77.2%, 51.5%)" stroke-width="1.5"></path><path d="M1458.38 531.67L1581.35 411.76" stroke="hsl(59.60000000000002, 77.2%, 51.5%)" stroke-width="1.5"></path><path d="M1458.38 531.67L1417.52 704.18" stroke="hsl(59.60000000000002, 77.2%, 51.5%)" stroke-width="1.5"></path><path d="M-100.36 502L-100.36 502" stroke="hsl(59.60000000000002, 77.2%, 51.5%)" stroke-width="1.5"></path><path d="M-100.36 502L48.14 555.66" stroke="hsl(59.60000000000002, 77.2%, 51.5%)" stroke-width="1.5"></path><path d="M-100.36 502L-61.89 697.11" stroke="hsl(59.60000000000002, 77.2%, 51.5%)" stroke-width="1.5"></path><path d="M-100.36 502L46.57 643.64" stroke="hsl(59.60000000000002, 77.2%, 51.5%)" stroke-width="1.5"></path><path d="M-100.36 502L239.75 497.19" stroke="hsl(59.60000000000002, 77.2%, 51.5%)" stroke-width="1.5"></path><path d="M-100.36 502L227.18 642.1" stroke="hsl(59.60000000000002, 77.2%, 51.5%)" stroke-width="1.5"></path><path d="M-61.89 697.11L-61.89 697.11" stroke="hsl(59.60000000000002, 77.2%, 51.5%)" stroke-width="1.5"></path><path d="M-61.89 697.11L46.57 643.64" stroke="hsl(59.60000000000002, 77.2%, 51.5%)" stroke-width="1.5"></path><path d="M-61.89 697.11L48.14 555.66" stroke="hsl(59.60000000000002, 77.2%, 51.5%)" stroke-width="1.5"></path><path d="M-61.89 697.11L227.18 642.1" stroke="hsl(59.60000000000002, 77.2%, 51.5%)" stroke-width="1.5"></path><path d="M-61.89 697.11L239.75 497.19" stroke="hsl(59.60000000000002, 77.2%, 51.5%)" stroke-width="1.5"></path><path d="M-61.89 697.11L359.3 697.25" stroke="hsl(59.60000000000002, 77.2%, 51.5%)" stroke-width="1.5"></path><path d="M48.14 555.66L48.14 555.66" stroke="hsl(59.60000000000002, 77.2%, 51.5%)" stroke-width="1.5"></path><path d="M48.14 555.66L46.57 643.64" stroke="hsl(59.60000000000002, 77.2%, 51.5%)" stroke-width="1.5"></path><path d="M48.14 555.66L227.18 642.1" stroke="hsl(59.60000000000002, 77.2%, 51.5%)" stroke-width="1.5"></path><path d="M48.14 555.66L239.75 497.19" stroke="hsl(59.60000000000002, 77.2%, 51.5%)" stroke-width="1.5"></path><path d="M46.57 643.64L46.57 643.64" stroke="hsl(59.60000000000002, 77.2%, 51.5%)" stroke-width="1.5"></path><path d="M46.57 643.64L227.18 642.1" stroke="hsl(59.60000000000002, 77.2%, 51.5%)" stroke-width="1.5"></path><path d="M46.57 643.64L239.75 497.19" stroke="hsl(59.60000000000002, 77.2%, 51.5%)" stroke-width="1.5"></path><path d="M239.75 497.19L239.75 497.19" stroke="hsl(59.60000000000002, 77.2%, 51.5%)" stroke-width="1.5"></path><path d="M239.75 497.19L338.6 541.97" stroke="hsl(59.60000000000002, 77.2%, 51.5%)" stroke-width="1.5"></path><path d="M239.75 497.19L227.18 642.1" stroke="hsl(59.60000000000002, 77.2%, 51.5%)" stroke-width="1.5"></path><path d="M227.18 642.1L227.18 642.1" stroke="hsl(59.60000000000002, 77.2%, 51.5%)" stroke-width="1.5"></path><path d="M227.18 642.1L359.3 697.25" stroke="hsl(59.60000000000002, 77.2%, 51.5%)" stroke-width="1.5"></path><path d="M227.18 642.1L338.6 541.97" stroke="hsl(59.60000000000002, 77.2%, 51.5%)" stroke-width="1.5"></path><path d="M338.6 541.97L338.6 541.97" stroke="hsl(59.60000000000002, 77.2%, 51.5%)" stroke-width="1.5"></path><path d="M338.6 541.97L359.3 697.25" stroke="hsl(59.60000000000002, 77.2%, 51.5%)" stroke-width="1.5"></path><path d="M338.6 541.97L512.19 645.11" stroke="hsl(59.60000000000002, 77.2%, 51.5%)" stroke-width="1.5"></path><path d="M359.3 697.25L359.3 697.25" stroke="hsl(59.60000000000002, 77.2%, 51.5%)" stroke-width="1.5"></path><path d="M536.13 498.9L536.13 498.9" stroke="hsl(59.60000000000002, 77.2%, 51.5%)" stroke-width="1.5"></path><path d="M536.13 498.9L512.19 645.11" stroke="hsl(59.60000000000002, 77.2%, 51.5%)" stroke-width="1.5"></path><path d="M536.13 498.9L711.69 400.76" stroke="hsl(59.60000000000002, 77.2%, 51.5%)" stroke-width="1.5"></path><path d="M536.13 498.9L338.6 541.97" stroke="hsl(59.60000000000002, 77.2%, 51.5%)" stroke-width="1.5"></path><path d="M536.13 498.9L679.11 678.61" stroke="hsl(59.60000000000002, 77.2%, 51.5%)" stroke-width="1.5"></path><path d="M512.19 645.11L512.19 645.11" stroke="hsl(59.60000000000002, 77.2%, 51.5%)" stroke-width="1.5"></path><path d="M512.19 645.11L359.3 697.25" stroke="hsl(59.60000000000002, 77.2%, 51.5%)" stroke-width="1.5"></path><path d="M512.19 645.11L679.11 678.61" stroke="hsl(59.60000000000002, 77.2%, 51.5%)" stroke-width="1.5"></path><path d="M512.19 645.11L227.18 642.1" stroke="hsl(59.60000000000002, 77.2%, 51.5%)" stroke-width="1.5"></path><path d="M711.69 400.76L711.69 400.76" stroke="hsl(59.60000000000002, 77.2%, 51.5%)" stroke-width="1.5"></path><path d="M679.11 678.61L679.11 678.61" stroke="hsl(59.60000000000002, 77.2%, 51.5%)" stroke-width="1.5"></path><path d="M679.11 678.61L855.26 662.63" stroke="hsl(59.60000000000002, 77.2%, 51.5%)" stroke-width="1.5"></path><path d="M679.11 678.61L851.34 557.7" stroke="hsl(59.60000000000002, 77.2%, 51.5%)" stroke-width="1.5"></path><path d="M854.46 339.25L854.46 339.25" stroke="hsl(59.60000000000002, 77.2%, 51.5%)" stroke-width="1.5"></path><path d="M854.46 339.25L711.69 400.76" stroke="hsl(59.60000000000002, 77.2%, 51.5%)" stroke-width="1.5"></path><path d="M851.34 557.7L851.34 557.7" stroke="hsl(59.60000000000002, 77.2%, 51.5%)" stroke-width="1.5"></path><path d="M851.34 557.7L855.26 662.63" stroke="hsl(59.60000000000002, 77.2%, 51.5%)" stroke-width="1.5"></path><path d="M851.34 557.7L950.01 681.38" stroke="hsl(59.60000000000002, 77.2%, 51.5%)" stroke-width="1.5"></path><path d="M851.34 557.7L711.69 400.76" stroke="hsl(59.60000000000002, 77.2%, 51.5%)" stroke-width="1.5"></path><path d="M855.26 662.63L855.26 662.63" stroke="hsl(59.60000000000002, 77.2%, 51.5%)" stroke-width="1.5"></path><path d="M855.26 662.63L950.01 681.38" stroke="hsl(59.60000000000002, 77.2%, 51.5%)" stroke-width="1.5"></path><path d="M950.01 681.38L950.01 681.38" stroke="hsl(59.60000000000002, 77.2%, 51.5%)" stroke-width="1.5"></path><path d="M950.01 681.38L1152.76 670.76" stroke="hsl(59.60000000000002, 77.2%, 51.5%)" stroke-width="1.5"></path><path d="M1158.28 346.65L1158.28 346.65" stroke="hsl(59.60000000000002, 77.2%, 51.5%)" stroke-width="1.5"></path><path d="M1158.28 346.65L1274.13 379.23" stroke="hsl(59.60000000000002, 77.2%, 51.5%)" stroke-width="1.5"></path><path d="M1158.28 346.65L1259.54 248.64" stroke="hsl(59.60000000000002, 77.2%, 51.5%)" stroke-width="1.5"></path><path d="M1158.28 346.65L1254.65 517.37" stroke="hsl(59.60000000000002, 77.2%, 51.5%)" stroke-width="1.5"></path><path d="M1152.76 670.76L1152.76 670.76" stroke="hsl(59.60000000000002, 77.2%, 51.5%)" stroke-width="1.5"></path><path d="M1152.76 670.76L1254.65 517.37" stroke="hsl(59.60000000000002, 77.2%, 51.5%)" stroke-width="1.5"></path><path d="M1284.64 -62.29L1284.64 -62.29" stroke="hsl(59.60000000000002, 77.2%, 51.5%)" stroke-width="1.5"></path><path d="M1284.64 -62.29L1413.22 -61.68" stroke="hsl(59.60000000000002, 77.2%, 51.5%)" stroke-width="1.5"></path><path d="M1284.64 -62.29L1404.87 102.39" stroke="hsl(59.60000000000002, 77.2%, 51.5%)" stroke-width="1.5"></path><path d="M1284.64 -62.29L1407.38 200.59" stroke="hsl(59.60000000000002, 77.2%, 51.5%)" stroke-width="1.5"></path><path d="M1284.64 -62.29L1543.4 87.78" stroke="hsl(59.60000000000002, 77.2%, 51.5%)" stroke-width="1.5"></path><path d="M1259.54 248.64L1259.54 248.64" stroke="hsl(59.60000000000002, 77.2%, 51.5%)" stroke-width="1.5"></path><path d="M1259.54 248.64L1274.13 379.23" stroke="hsl(59.60000000000002, 77.2%, 51.5%)" stroke-width="1.5"></path><path d="M1274.13 379.23L1274.13 379.23" stroke="hsl(59.60000000000002, 77.2%, 51.5%)" stroke-width="1.5"></path><path d="M1274.13 379.23L1254.65 517.37" stroke="hsl(59.60000000000002, 77.2%, 51.5%)" stroke-width="1.5"></path><path d="M1274.13 379.23L1461.36 343.86" stroke="hsl(59.60000000000002, 77.2%, 51.5%)" stroke-width="1.5"></path><path d="M1274.13 379.23L1407.38 200.59" stroke="hsl(59.60000000000002, 77.2%, 51.5%)" stroke-width="1.5"></path><path d="M1274.13 379.23L1458.38 531.67" stroke="hsl(59.60000000000002, 77.2%, 51.5%)" stroke-width="1.5"></path><path d="M1254.65 517.37L1254.65 517.37" stroke="hsl(59.60000000000002, 77.2%, 51.5%)" stroke-width="1.5"></path><path d="M1413.22 -61.68L1413.22 -61.68" stroke="hsl(59.60000000000002, 77.2%, 51.5%)" stroke-width="1.5"></path><path d="M1413.22 -61.68L1404.87 102.39" stroke="hsl(59.60000000000002, 77.2%, 51.5%)" stroke-width="1.5"></path><path d="M1404.87 102.39L1404.87 102.39" stroke="hsl(59.60000000000002, 77.2%, 51.5%)" stroke-width="1.5"></path><path d="M1404.87 102.39L1407.38 200.59" stroke="hsl(59.60000000000002, 77.2%, 51.5%)" stroke-width="1.5"></path><path d="M1404.87 102.39L1543.4 87.78" stroke="hsl(59.60000000000002, 77.2%, 51.5%)" stroke-width="1.5"></path><path d="M1407.38 200.59L1407.38 200.59" stroke="hsl(59.60000000000002, 77.2%, 51.5%)" stroke-width="1.5"></path><path d="M1407.38 200.59L1461.36 343.86" stroke="hsl(59.60000000000002, 77.2%, 51.5%)" stroke-width="1.5"></path><path d="M1407.38 200.59L1259.54 248.64" stroke="hsl(59.60000000000002, 77.2%, 51.5%)" stroke-width="1.5"></path><path d="M1407.38 200.59L1543.4 87.78" stroke="hsl(59.60000000000002, 77.2%, 51.5%)" stroke-width="1.5"></path><path d="M1417.52 704.18L1417.52 704.18" stroke="hsl(59.60000000000002, 77.2%, 51.5%)" stroke-width="1.5"></path><path d="M1417.52 704.18L1581.97 673.29" stroke="hsl(59.60000000000002, 77.2%, 51.5%)" stroke-width="1.5"></path><path d="M1417.52 704.18L1581.94 550.52" stroke="hsl(59.60000000000002, 77.2%, 51.5%)" stroke-width="1.5"></path><path d="M1417.52 704.18L1254.65 517.37" stroke="hsl(59.60000000000002, 77.2%, 51.5%)" stroke-width="1.5"></path><path d="M1596.62 -41.88L1596.62 -41.88" stroke="hsl(59.60000000000002, 77.2%, 51.5%)" stroke-width="1.5"></path><path d="M1596.62 -41.88L1543.4 87.78" stroke="hsl(59.60000000000002, 77.2%, 51.5%)" stroke-width="1.5"></path><path d="M1596.62 -41.88L1413.22 -61.68" stroke="hsl(59.60000000000002, 77.2%, 51.5%)" stroke-width="1.5"></path><path d="M1596.62 -41.88L1404.87 102.39" stroke="hsl(59.60000000000002, 77.2%, 51.5%)" stroke-width="1.5"></path><path d="M1596.62 -41.88L1576.25 262.45" stroke="hsl(59.60000000000002, 77.2%, 51.5%)" stroke-width="1.5"></path><path d="M1543.4 87.78L1543.4 87.78" stroke="hsl(59.60000000000002, 77.2%, 51.5%)" stroke-width="1.5"></path><path d="M1576.25 262.45L1576.25 262.45" stroke="hsl(59.60000000000002, 77.2%, 51.5%)" stroke-width="1.5"></path><path d="M1576.25 262.45L1461.36 343.86" stroke="hsl(59.60000000000002, 77.2%, 51.5%)" stroke-width="1.5"></path><path d="M1576.25 262.45L1581.35 411.76" stroke="hsl(59.60000000000002, 77.2%, 51.5%)" stroke-width="1.5"></path><path d="M1576.25 262.45L1543.4 87.78" stroke="hsl(59.60000000000002, 77.2%, 51.5%)" stroke-width="1.5"></path><path d="M1576.25 262.45L1407.38 200.59" stroke="hsl(59.60000000000002, 77.2%, 51.5%)" stroke-width="1.5"></path><path d="M1581.35 411.76L1581.35 411.76" stroke="hsl(59.60000000000002, 77.2%, 51.5%)" stroke-width="1.5"></path><path d="M1581.35 411.76L1581.94 550.52" stroke="hsl(59.60000000000002, 77.2%, 51.5%)" stroke-width="1.5"></path><path d="M1581.35 411.76L1581.97 673.29" stroke="hsl(59.60000000000002, 77.2%, 51.5%)" stroke-width="1.5"></path><path d="M1581.94 550.52L1581.94 550.52" stroke="hsl(59.60000000000002, 77.2%, 51.5%)" stroke-width="1.5"></path><path d="M1581.94 550.52L1581.97 673.29" stroke="hsl(59.60000000000002, 77.2%, 51.5%)" stroke-width="1.5"></path><path d="M1581.97 673.29L1581.97 673.29" stroke="hsl(59.60000000000002, 77.2%, 51.5%)" stroke-width="1.5"></path><circle r="25" cx="667.24" cy="543.37" fill="url(&quot;#SvgjsRadialGradient1011&quot;)"></circle><circle r="25" cx="970.37" cy="408" fill="url(&quot;#SvgjsRadialGradient1011&quot;)"></circle><circle r="25" cx="938.05" cy="524.55" fill="url(&quot;#SvgjsRadialGradient1011&quot;)"></circle><circle r="25" cx="1153.58" cy="110.84" fill="url(&quot;#SvgjsRadialGradient1011&quot;)"></circle><circle r="25" cx="1288.03" cy="68.1" fill="url(&quot;#SvgjsRadialGradient1011&quot;)"></circle><circle r="25" cx="1284.63" cy="674.09" fill="url(&quot;#SvgjsRadialGradient1011&quot;)"></circle><circle r="25" cx="1461.36" cy="343.86" fill="url(&quot;#SvgjsRadialGradient1011&quot;)"></circle><circle r="25" cx="1458.38" cy="531.67" fill="url(&quot;#SvgjsRadialGradient1011&quot;)"></circle><circle r="5" cx="-100.36" cy="502" fill="#d9d98b"></circle><circle r="5" cx="-61.89" cy="697.11" fill="#d9d98b"></circle><circle r="5" cx="48.14" cy="555.66" fill="#d9d98b"></circle><circle r="5" cx="46.57" cy="643.64" fill="#d9d98b"></circle><circle r="5" cx="239.75" cy="497.19" fill="#d9d98b"></circle><circle r="5" cx="227.18" cy="642.1" fill="#d9d98b"></circle><circle r="5" cx="338.6" cy="541.97" fill="#d9d98b"></circle><circle r="5" cx="359.3" cy="697.25" fill="#d9d98b"></circle><circle r="5" cx="536.13" cy="498.9" fill="#d9d98b"></circle><circle r="5" cx="512.19" cy="645.11" fill="#d9d98b"></circle><circle r="5" cx="711.69" cy="400.76" fill="#d9d98b"></circle><circle r="5" cx="679.11" cy="678.61" fill="#d9d98b"></circle><circle r="5" cx="854.46" cy="339.25" fill="#d9d98b"></circle><circle r="5" cx="851.34" cy="557.7" fill="#d9d98b"></circle><circle r="5" cx="855.26" cy="662.63" fill="#d9d98b"></circle><circle r="5" cx="950.01" cy="681.38" fill="#d9d98b"></circle><circle r="5" cx="1158.28" cy="346.65" fill="#d9d98b"></circle><circle r="5" cx="1152.76" cy="670.76" fill="#d9d98b"></circle><circle r="5" cx="1284.64" cy="-62.29" fill="#d9d98b"></circle><circle r="5" cx="1259.54" cy="248.64" fill="#d9d98b"></circle><circle r="5" cx="1274.13" cy="379.23" fill="#d9d98b"></circle><circle r="5" cx="1254.65" cy="517.37" fill="#d9d98b"></circle><circle r="5" cx="1413.22" cy="-61.68" fill="#d9d98b"></circle><circle r="5" cx="1404.87" cy="102.39" fill="#d9d98b"></circle><circle r="5" cx="1407.38" cy="200.59" fill="#d9d98b"></circle><circle r="5" cx="1417.52" cy="704.18" fill="#d9d98b"></circle><circle r="5" cx="1596.62" cy="-41.88" fill="#d9d98b"></circle><circle r="5" cx="1543.4" cy="87.78" fill="#d9d98b"></circle><circle r="5" cx="1576.25" cy="262.45" fill="#d9d98b"></circle><circle r="5" cx="1581.35" cy="411.76" fill="#d9d98b"></circle><circle r="5" cx="1581.94" cy="550.52" fill="#d9d98b"></circle><circle r="5" cx="1581.97" cy="673.29" fill="#d9d98b"></circle></g><defs><mask id="SvgjsMask1010"><rect width="1440" height="560" fill="#ffffff"></rect></mask><radialGradient id="SvgjsRadialGradient1011"><stop stop-color="#ffffff" offset="0.1"></stop><stop stop-color="rgba(179, 178, 23, 1)" offset="0.2"></stop><stop stop-color="rgba(179, 178, 23, 0)" offset="1"></stop></radialGradient></defs></svg>