<svg xmlns="http://www.w3.org/2000/svg" version="1.1" xmlns:xlink="http://www.w3.org/1999/xlink" xmlns:svgjs="http://svgjs.dev/svgjs" width="1440" height="560" preserveAspectRatio="none" viewBox="0 0 1440 560"><g mask="url(&quot;#SvgjsMask1012&quot;)" fill="none"><rect width="1440" height="560" x="0" y="0" fill="rgba(6, 10, 14, 1)"></rect><path d="M-61.83 387.68L-61.83 387.68" stroke="rgba(101, 89, 19, 1)" stroke-width="1.5"></path><path d="M-61.83 387.68L82.76 390.86" stroke="rgba(101, 89, 19, 1)" stroke-width="1.5"></path><path d="M-61.83 387.68L46.77 496.6" stroke="rgba(101, 89, 19, 1)" stroke-width="1.5"></path><path d="M-61.83 387.68L-101.45 548.92" stroke="rgba(101, 89, 19, 1)" stroke-width="1.5"></path><path d="M-101.45 548.92L-101.45 548.92" stroke="rgba(101, 89, 19, 1)" stroke-width="1.5"></path><path d="M-101.45 548.92L-79.06 697.98" stroke="rgba(101, 89, 19, 1)" stroke-width="1.5"></path><path d="M-101.45 548.92L46.77 496.6" stroke="rgba(101, 89, 19, 1)" stroke-width="1.5"></path><path d="M-79.06 697.98L-79.06 697.98" stroke="rgba(101, 89, 19, 1)" stroke-width="1.5"></path><path d="M-79.06 697.98L88.12 652.88" stroke="rgba(101, 89, 19, 1)" stroke-width="1.5"></path><path d="M82.76 390.86L82.76 390.86" stroke="rgba(101, 89, 19, 1)" stroke-width="1.5"></path><path d="M82.76 390.86L46.77 496.6" stroke="rgba(101, 89, 19, 1)" stroke-width="1.5"></path><path d="M82.76 390.86L245.16 529.34" stroke="rgba(101, 89, 19, 1)" stroke-width="1.5"></path><path d="M82.76 390.86L-101.45 548.92" stroke="rgba(101, 89, 19, 1)" stroke-width="1.5"></path><path d="M82.76 390.86L88.12 652.88" stroke="rgba(101, 89, 19, 1)" stroke-width="1.5"></path><path d="M82.76 390.86L357.63 355.2" stroke="rgba(101, 89, 19, 1)" stroke-width="1.5"></path><path d="M46.77 496.6L46.77 496.6" stroke="rgba(101, 89, 19, 1)" stroke-width="1.5"></path><path d="M46.77 496.6L88.12 652.88" stroke="rgba(101, 89, 19, 1)" stroke-width="1.5"></path><path d="M46.77 496.6L245.16 529.34" stroke="rgba(101, 89, 19, 1)" stroke-width="1.5"></path><path d="M46.77 496.6L-79.06 697.98" stroke="rgba(101, 89, 19, 1)" stroke-width="1.5"></path><path d="M88.12 652.88L88.12 652.88" stroke="rgba(101, 89, 19, 1)" stroke-width="1.5"></path><path d="M88.12 652.88L195.94 694.33" stroke="rgba(101, 89, 19, 1)" stroke-width="1.5"></path><path d="M88.12 652.88L245.16 529.34" stroke="rgba(101, 89, 19, 1)" stroke-width="1.5"></path><path d="M245.16 529.34L245.16 529.34" stroke="rgba(101, 89, 19, 1)" stroke-width="1.5"></path><path d="M245.16 529.34L343.53 545.65" stroke="rgba(101, 89, 19, 1)" stroke-width="1.5"></path><path d="M245.16 529.34L195.94 694.33" stroke="rgba(101, 89, 19, 1)" stroke-width="1.5"></path><path d="M245.16 529.34L374.06 644.03" stroke="rgba(101, 89, 19, 1)" stroke-width="1.5"></path><path d="M195.94 694.33L195.94 694.33" stroke="rgba(101, 89, 19, 1)" stroke-width="1.5"></path><path d="M195.94 694.33L374.06 644.03" stroke="rgba(101, 89, 19, 1)" stroke-width="1.5"></path><path d="M357.63 355.2L357.63 355.2" stroke="rgba(101, 89, 19, 1)" stroke-width="1.5"></path><path d="M357.63 355.2L343.53 545.65" stroke="rgba(101, 89, 19, 1)" stroke-width="1.5"></path><path d="M357.63 355.2L245.16 529.34" stroke="rgba(101, 89, 19, 1)" stroke-width="1.5"></path><path d="M343.53 545.65L343.53 545.65" stroke="rgba(101, 89, 19, 1)" stroke-width="1.5"></path><path d="M343.53 545.65L374.06 644.03" stroke="rgba(101, 89, 19, 1)" stroke-width="1.5"></path><path d="M374.06 644.03L374.06 644.03" stroke="rgba(101, 89, 19, 1)" stroke-width="1.5"></path><path d="M374.06 644.03L493.52 644.09" stroke="rgba(101, 89, 19, 1)" stroke-width="1.5"></path><path d="M374.06 644.03L497.75 512.03" stroke="rgba(101, 89, 19, 1)" stroke-width="1.5"></path><path d="M497.75 512.03L497.75 512.03" stroke="rgba(101, 89, 19, 1)" stroke-width="1.5"></path><path d="M497.75 512.03L493.52 644.09" stroke="rgba(101, 89, 19, 1)" stroke-width="1.5"></path><path d="M497.75 512.03L343.53 545.65" stroke="rgba(101, 89, 19, 1)" stroke-width="1.5"></path><path d="M497.75 512.03L357.63 355.2" stroke="rgba(101, 89, 19, 1)" stroke-width="1.5"></path><path d="M497.75 512.03L653.44 361.73" stroke="rgba(101, 89, 19, 1)" stroke-width="1.5"></path><path d="M497.75 512.03L706.63 640.71" stroke="rgba(101, 89, 19, 1)" stroke-width="1.5"></path><path d="M493.52 644.09L493.52 644.09" stroke="rgba(101, 89, 19, 1)" stroke-width="1.5"></path><path d="M493.52 644.09L343.53 545.65" stroke="rgba(101, 89, 19, 1)" stroke-width="1.5"></path><path d="M653.44 361.73L653.44 361.73" stroke="rgba(101, 89, 19, 1)" stroke-width="1.5"></path><path d="M653.44 361.73L826.3 385.79" stroke="rgba(101, 89, 19, 1)" stroke-width="1.5"></path><path d="M706.63 640.71L706.63 640.71" stroke="rgba(101, 89, 19, 1)" stroke-width="1.5"></path><path d="M706.63 640.71L859.33 659.28" stroke="rgba(101, 89, 19, 1)" stroke-width="1.5"></path><path d="M706.63 640.71L838 557.7" stroke="rgba(101, 89, 19, 1)" stroke-width="1.5"></path><path d="M706.63 640.71L493.52 644.09" stroke="rgba(101, 89, 19, 1)" stroke-width="1.5"></path><path d="M706.63 640.71L972.33 680.25" stroke="rgba(101, 89, 19, 1)" stroke-width="1.5"></path><path d="M706.63 640.71L826.3 385.79" stroke="rgba(101, 89, 19, 1)" stroke-width="1.5"></path><path d="M859.71 213.58L859.71 213.58" stroke="rgba(101, 89, 19, 1)" stroke-width="1.5"></path><path d="M859.71 213.58L943.82 233.75" stroke="rgba(101, 89, 19, 1)" stroke-width="1.5"></path><path d="M859.71 213.58L826.3 385.79" stroke="rgba(101, 89, 19, 1)" stroke-width="1.5"></path><path d="M859.71 213.58L937.53 392.32" stroke="rgba(101, 89, 19, 1)" stroke-width="1.5"></path><path d="M826.3 385.79L826.3 385.79" stroke="rgba(101, 89, 19, 1)" stroke-width="1.5"></path><path d="M826.3 385.79L937.53 392.32" stroke="rgba(101, 89, 19, 1)" stroke-width="1.5"></path><path d="M826.3 385.79L838 557.7" stroke="rgba(101, 89, 19, 1)" stroke-width="1.5"></path><path d="M838 557.7L838 557.7" stroke="rgba(101, 89, 19, 1)" stroke-width="1.5"></path><path d="M838 557.7L859.33 659.28" stroke="rgba(101, 89, 19, 1)" stroke-width="1.5"></path><path d="M838 557.7L1004.25 515.62" stroke="rgba(101, 89, 19, 1)" stroke-width="1.5"></path><path d="M838 557.7L972.33 680.25" stroke="rgba(101, 89, 19, 1)" stroke-width="1.5"></path><path d="M838 557.7L937.53 392.32" stroke="rgba(101, 89, 19, 1)" stroke-width="1.5"></path><path d="M859.33 659.28L859.33 659.28" stroke="rgba(101, 89, 19, 1)" stroke-width="1.5"></path><path d="M859.33 659.28L972.33 680.25" stroke="rgba(101, 89, 19, 1)" stroke-width="1.5"></path><path d="M859.33 659.28L1004.25 515.62" stroke="rgba(101, 89, 19, 1)" stroke-width="1.5"></path><path d="M859.33 659.28L1126.63 675.68" stroke="rgba(101, 89, 19, 1)" stroke-width="1.5"></path><path d="M998.75 -65.35L998.75 -65.35" stroke="rgba(101, 89, 19, 1)" stroke-width="1.5"></path><path d="M998.75 -65.35L987.51 37.78" stroke="rgba(101, 89, 19, 1)" stroke-width="1.5"></path><path d="M998.75 -65.35L1095.57 -105.26" stroke="rgba(101, 89, 19, 1)" stroke-width="1.5"></path><path d="M998.75 -65.35L1131.63 42.24" stroke="rgba(101, 89, 19, 1)" stroke-width="1.5"></path><path d="M987.51 37.78L987.51 37.78" stroke="rgba(101, 89, 19, 1)" stroke-width="1.5"></path><path d="M987.51 37.78L1131.63 42.24" stroke="rgba(101, 89, 19, 1)" stroke-width="1.5"></path><path d="M987.51 37.78L1095.57 -105.26" stroke="rgba(101, 89, 19, 1)" stroke-width="1.5"></path><path d="M943.82 233.75L943.82 233.75" stroke="rgba(101, 89, 19, 1)" stroke-width="1.5"></path><path d="M943.82 233.75L937.53 392.32" stroke="rgba(101, 89, 19, 1)" stroke-width="1.5"></path><path d="M943.82 233.75L1123 232.79" stroke="rgba(101, 89, 19, 1)" stroke-width="1.5"></path><path d="M943.82 233.75L826.3 385.79" stroke="rgba(101, 89, 19, 1)" stroke-width="1.5"></path><path d="M937.53 392.32L937.53 392.32" stroke="rgba(101, 89, 19, 1)" stroke-width="1.5"></path><path d="M937.53 392.32L1004.25 515.62" stroke="rgba(101, 89, 19, 1)" stroke-width="1.5"></path><path d="M1004.25 515.62L1004.25 515.62" stroke="rgba(101, 89, 19, 1)" stroke-width="1.5"></path><path d="M1004.25 515.62L1123.82 552.94" stroke="rgba(101, 89, 19, 1)" stroke-width="1.5"></path><path d="M972.33 680.25L972.33 680.25" stroke="rgba(101, 89, 19, 1)" stroke-width="1.5"></path><path d="M972.33 680.25L1126.63 675.68" stroke="rgba(101, 89, 19, 1)" stroke-width="1.5"></path><path d="M1095.57 -105.26L1095.57 -105.26" stroke="rgba(101, 89, 19, 1)" stroke-width="1.5"></path><path d="M1095.57 -105.26L1131.63 42.24" stroke="rgba(101, 89, 19, 1)" stroke-width="1.5"></path><path d="M1095.57 -105.26L1282.32 -65.94" stroke="rgba(101, 89, 19, 1)" stroke-width="1.5"></path><path d="M1131.63 42.24L1131.63 42.24" stroke="rgba(101, 89, 19, 1)" stroke-width="1.5"></path><path d="M1123 232.79L1123 232.79" stroke="rgba(101, 89, 19, 1)" stroke-width="1.5"></path><path d="M1123 232.79L1267.22 244.09" stroke="rgba(101, 89, 19, 1)" stroke-width="1.5"></path><path d="M1123 232.79L1131.63 42.24" stroke="rgba(101, 89, 19, 1)" stroke-width="1.5"></path><path d="M1123 232.79L1293.85 354.13" stroke="rgba(101, 89, 19, 1)" stroke-width="1.5"></path><path d="M1123 232.79L1295.49 103.95" stroke="rgba(101, 89, 19, 1)" stroke-width="1.5"></path><path d="M1123.82 552.94L1123.82 552.94" stroke="rgba(101, 89, 19, 1)" stroke-width="1.5"></path><path d="M1123.82 552.94L1126.63 675.68" stroke="rgba(101, 89, 19, 1)" stroke-width="1.5"></path><path d="M1123.82 552.94L1275.47 527.38" stroke="rgba(101, 89, 19, 1)" stroke-width="1.5"></path><path d="M1123.82 552.94L972.33 680.25" stroke="rgba(101, 89, 19, 1)" stroke-width="1.5"></path><path d="M1126.63 675.68L1126.63 675.68" stroke="rgba(101, 89, 19, 1)" stroke-width="1.5"></path><path d="M1126.63 675.68L1292.75 690.73" stroke="rgba(101, 89, 19, 1)" stroke-width="1.5"></path><path d="M1126.63 675.68L1004.25 515.62" stroke="rgba(101, 89, 19, 1)" stroke-width="1.5"></path><path d="M1282.32 -65.94L1282.32 -65.94" stroke="rgba(101, 89, 19, 1)" stroke-width="1.5"></path><path d="M1282.32 -65.94L1441.06 -82.36" stroke="rgba(101, 89, 19, 1)" stroke-width="1.5"></path><path d="M1282.32 -65.94L1295.49 103.95" stroke="rgba(101, 89, 19, 1)" stroke-width="1.5"></path><path d="M1295.49 103.95L1295.49 103.95" stroke="rgba(101, 89, 19, 1)" stroke-width="1.5"></path><path d="M1295.49 103.95L1267.22 244.09" stroke="rgba(101, 89, 19, 1)" stroke-width="1.5"></path><path d="M1295.49 103.95L1411.9 190.74" stroke="rgba(101, 89, 19, 1)" stroke-width="1.5"></path><path d="M1267.22 244.09L1267.22 244.09" stroke="rgba(101, 89, 19, 1)" stroke-width="1.5"></path><path d="M1267.22 244.09L1293.85 354.13" stroke="rgba(101, 89, 19, 1)" stroke-width="1.5"></path><path d="M1293.85 354.13L1293.85 354.13" stroke="rgba(101, 89, 19, 1)" stroke-width="1.5"></path><path d="M1293.85 354.13L1403.11 396.7" stroke="rgba(101, 89, 19, 1)" stroke-width="1.5"></path><path d="M1293.85 354.13L1275.47 527.38" stroke="rgba(101, 89, 19, 1)" stroke-width="1.5"></path><path d="M1293.85 354.13L1411.9 190.74" stroke="rgba(101, 89, 19, 1)" stroke-width="1.5"></path><path d="M1275.47 527.38L1275.47 527.38" stroke="rgba(101, 89, 19, 1)" stroke-width="1.5"></path><path d="M1275.47 527.38L1292.75 690.73" stroke="rgba(101, 89, 19, 1)" stroke-width="1.5"></path><path d="M1275.47 527.38L1445.6 512.02" stroke="rgba(101, 89, 19, 1)" stroke-width="1.5"></path><path d="M1292.75 690.73L1292.75 690.73" stroke="rgba(101, 89, 19, 1)" stroke-width="1.5"></path><path d="M1292.75 690.73L1401.64 696" stroke="rgba(101, 89, 19, 1)" stroke-width="1.5"></path><path d="M1292.75 690.73L1123.82 552.94" stroke="rgba(101, 89, 19, 1)" stroke-width="1.5"></path><path d="M1292.75 690.73L1445.6 512.02" stroke="rgba(101, 89, 19, 1)" stroke-width="1.5"></path><path d="M1292.75 690.73L1403.11 396.7" stroke="rgba(101, 89, 19, 1)" stroke-width="1.5"></path><path d="M1441.06 -82.36L1441.06 -82.36" stroke="rgba(101, 89, 19, 1)" stroke-width="1.5"></path><path d="M1441.06 -82.36L1581.07 -75.79" stroke="rgba(101, 89, 19, 1)" stroke-width="1.5"></path><path d="M1441.06 -82.36L1454.69 71.31" stroke="rgba(101, 89, 19, 1)" stroke-width="1.5"></path><path d="M1441.06 -82.36L1585.7 68.79" stroke="rgba(101, 89, 19, 1)" stroke-width="1.5"></path><path d="M1441.06 -82.36L1295.49 103.95" stroke="rgba(101, 89, 19, 1)" stroke-width="1.5"></path><path d="M1454.69 71.31L1454.69 71.31" stroke="rgba(101, 89, 19, 1)" stroke-width="1.5"></path><path d="M1454.69 71.31L1411.9 190.74" stroke="rgba(101, 89, 19, 1)" stroke-width="1.5"></path><path d="M1454.69 71.31L1585.7 68.79" stroke="rgba(101, 89, 19, 1)" stroke-width="1.5"></path><path d="M1454.69 71.31L1295.49 103.95" stroke="rgba(101, 89, 19, 1)" stroke-width="1.5"></path><path d="M1454.69 71.31L1581.07 -75.79" stroke="rgba(101, 89, 19, 1)" stroke-width="1.5"></path><path d="M1454.69 71.31L1282.32 -65.94" stroke="rgba(101, 89, 19, 1)" stroke-width="1.5"></path><path d="M1411.9 190.74L1411.9 190.74" stroke="rgba(101, 89, 19, 1)" stroke-width="1.5"></path><path d="M1403.11 396.7L1403.11 396.7" stroke="rgba(101, 89, 19, 1)" stroke-width="1.5"></path><path d="M1403.11 396.7L1445.6 512.02" stroke="rgba(101, 89, 19, 1)" stroke-width="1.5"></path><path d="M1403.11 396.7L1546.36 402.26" stroke="rgba(101, 89, 19, 1)" stroke-width="1.5"></path><path d="M1403.11 396.7L1275.47 527.38" stroke="rgba(101, 89, 19, 1)" stroke-width="1.5"></path><path d="M1403.11 396.7L1267.22 244.09" stroke="rgba(101, 89, 19, 1)" stroke-width="1.5"></path><path d="M1403.11 396.7L1411.9 190.74" stroke="rgba(101, 89, 19, 1)" stroke-width="1.5"></path><path d="M1445.6 512.02L1445.6 512.02" stroke="rgba(101, 89, 19, 1)" stroke-width="1.5"></path><path d="M1445.6 512.02L1582.72 547.82" stroke="rgba(101, 89, 19, 1)" stroke-width="1.5"></path><path d="M1445.6 512.02L1546.36 402.26" stroke="rgba(101, 89, 19, 1)" stroke-width="1.5"></path><path d="M1401.64 696L1401.64 696" stroke="rgba(101, 89, 19, 1)" stroke-width="1.5"></path><path d="M1401.64 696L1445.6 512.02" stroke="rgba(101, 89, 19, 1)" stroke-width="1.5"></path><path d="M1401.64 696L1275.47 527.38" stroke="rgba(101, 89, 19, 1)" stroke-width="1.5"></path><path d="M1401.64 696L1610.82 664.45" stroke="rgba(101, 89, 19, 1)" stroke-width="1.5"></path><path d="M1401.64 696L1582.72 547.82" stroke="rgba(101, 89, 19, 1)" stroke-width="1.5"></path><path d="M1581.07 -75.79L1581.07 -75.79" stroke="rgba(101, 89, 19, 1)" stroke-width="1.5"></path><path d="M1581.07 -75.79L1585.7 68.79" stroke="rgba(101, 89, 19, 1)" stroke-width="1.5"></path><path d="M1585.7 68.79L1585.7 68.79" stroke="rgba(101, 89, 19, 1)" stroke-width="1.5"></path><path d="M1585.7 68.79L1601.83 253.16" stroke="rgba(101, 89, 19, 1)" stroke-width="1.5"></path><path d="M1601.83 253.16L1601.83 253.16" stroke="rgba(101, 89, 19, 1)" stroke-width="1.5"></path><path d="M1601.83 253.16L1546.36 402.26" stroke="rgba(101, 89, 19, 1)" stroke-width="1.5"></path><path d="M1546.36 402.26L1546.36 402.26" stroke="rgba(101, 89, 19, 1)" stroke-width="1.5"></path><path d="M1546.36 402.26L1582.72 547.82" stroke="rgba(101, 89, 19, 1)" stroke-width="1.5"></path><path d="M1582.72 547.82L1582.72 547.82" stroke="rgba(101, 89, 19, 1)" stroke-width="1.5"></path><path d="M1582.72 547.82L1610.82 664.45" stroke="rgba(101, 89, 19, 1)" stroke-width="1.5"></path><path d="M1610.82 664.45L1610.82 664.45" stroke="rgba(101, 89, 19, 1)" stroke-width="1.5"></path><path d="M1610.82 664.45L1445.6 512.02" stroke="rgba(101, 89, 19, 1)" stroke-width="1.5"></path><circle r="5" cx="-61.83" cy="387.68" fill="rgba(101, 89, 19, 1)"></circle><circle r="5" cx="-101.45" cy="548.92" fill="rgba(101, 89, 19, 1)"></circle><circle r="5" cx="-79.06" cy="697.98" fill="rgba(101, 89, 19, 1)"></circle><circle r="5" cx="82.76" cy="390.86" fill="rgba(101, 89, 19, 1)"></circle><circle r="5" cx="46.77" cy="496.6" fill="rgba(101, 89, 19, 1)"></circle><circle r="5" cx="88.12" cy="652.88" fill="rgba(101, 89, 19, 1)"></circle><circle r="5" cx="245.16" cy="529.34" fill="rgba(101, 89, 19, 1)"></circle><circle r="5" cx="195.94" cy="694.33" fill="rgba(101, 89, 19, 1)"></circle><circle r="5" cx="357.63" cy="355.2" fill="rgba(101, 89, 19, 1)"></circle><circle r="5" cx="343.53" cy="545.65" fill="rgba(101, 89, 19, 1)"></circle><circle r="5" cx="374.06" cy="644.03" fill="rgba(101, 89, 19, 1)"></circle><circle r="5" cx="497.75" cy="512.03" fill="rgba(101, 89, 19, 1)"></circle><circle r="5" cx="493.52" cy="644.09" fill="rgba(101, 89, 19, 1)"></circle><circle r="5" cx="653.44" cy="361.73" fill="rgba(101, 89, 19, 1)"></circle><circle r="5" cx="706.63" cy="640.71" fill="rgba(101, 89, 19, 1)"></circle><circle r="5" cx="859.71" cy="213.58" fill="rgba(101, 89, 19, 1)"></circle><circle r="5" cx="826.3" cy="385.79" fill="rgba(101, 89, 19, 1)"></circle><circle r="5" cx="838" cy="557.7" fill="rgba(101, 89, 19, 1)"></circle><circle r="5" cx="859.33" cy="659.28" fill="rgba(101, 89, 19, 1)"></circle><circle r="5" cx="998.75" cy="-65.35" fill="rgba(101, 89, 19, 1)"></circle><circle r="5" cx="987.51" cy="37.78" fill="rgba(101, 89, 19, 1)"></circle><circle r="5" cx="943.82" cy="233.75" fill="rgba(101, 89, 19, 1)"></circle><circle r="5" cx="937.53" cy="392.32" fill="rgba(101, 89, 19, 1)"></circle><circle r="5" cx="1004.25" cy="515.62" fill="rgba(101, 89, 19, 1)"></circle><circle r="5" cx="972.33" cy="680.25" fill="rgba(101, 89, 19, 1)"></circle><circle r="5" cx="1095.57" cy="-105.26" fill="rgba(101, 89, 19, 1)"></circle><circle r="5" cx="1131.63" cy="42.24" fill="rgba(101, 89, 19, 1)"></circle><circle r="5" cx="1123" cy="232.79" fill="rgba(101, 89, 19, 1)"></circle><circle r="5" cx="1123.82" cy="552.94" fill="rgba(101, 89, 19, 1)"></circle><circle r="5" cx="1126.63" cy="675.68" fill="rgba(101, 89, 19, 1)"></circle><circle r="5" cx="1282.32" cy="-65.94" fill="rgba(101, 89, 19, 1)"></circle><circle r="5" cx="1295.49" cy="103.95" fill="rgba(101, 89, 19, 1)"></circle><circle r="5" cx="1267.22" cy="244.09" fill="rgba(101, 89, 19, 1)"></circle><circle r="5" cx="1293.85" cy="354.13" fill="rgba(101, 89, 19, 1)"></circle><circle r="5" cx="1275.47" cy="527.38" fill="rgba(101, 89, 19, 1)"></circle><circle r="5" cx="1292.75" cy="690.73" fill="rgba(101, 89, 19, 1)"></circle><circle r="5" cx="1441.06" cy="-82.36" fill="rgba(101, 89, 19, 1)"></circle><circle r="5" cx="1454.69" cy="71.31" fill="rgba(101, 89, 19, 1)"></circle><circle r="5" cx="1411.9" cy="190.74" fill="rgba(101, 89, 19, 1)"></circle><circle r="5" cx="1403.11" cy="396.7" fill="rgba(101, 89, 19, 1)"></circle><circle r="5" cx="1445.6" cy="512.02" fill="rgba(101, 89, 19, 1)"></circle><circle r="5" cx="1401.64" cy="696" fill="rgba(101, 89, 19, 1)"></circle><circle r="5" cx="1581.07" cy="-75.79" fill="rgba(101, 89, 19, 1)"></circle><circle r="5" cx="1585.7" cy="68.79" fill="rgba(101, 89, 19, 1)"></circle><circle r="5" cx="1601.83" cy="253.16" fill="rgba(101, 89, 19, 1)"></circle><circle r="5" cx="1546.36" cy="402.26" fill="rgba(101, 89, 19, 1)"></circle><circle r="5" cx="1582.72" cy="547.82" fill="rgba(101, 89, 19, 1)"></circle><circle r="5" cx="1610.82" cy="664.45" fill="rgba(101, 89, 19, 1)"></circle><path d="M-85.91 495.85L-85.91 495.85" stroke="hsl(62.30000000000001, 77.2%, 51.5%)" stroke-width="1.5"></path><path d="M-85.91 495.85L-65.45 710.01" stroke="hsl(62.30000000000001, 77.2%, 51.5%)" stroke-width="1.5"></path><path d="M-85.91 495.85L188 528.12" stroke="hsl(62.30000000000001, 77.2%, 51.5%)" stroke-width="1.5"></path><path d="M-85.91 495.85L100.28 711.84" stroke="hsl(62.30000000000001, 77.2%, 51.5%)" stroke-width="1.5"></path><path d="M-85.91 495.85L244.81 698.09" stroke="hsl(62.30000000000001, 77.2%, 51.5%)" stroke-width="1.5"></path><path d="M188 528.12L188 528.12" stroke="hsl(62.30000000000001, 77.2%, 51.5%)" stroke-width="1.5"></path><path d="M188 528.12L244.81 698.09" stroke="hsl(62.30000000000001, 77.2%, 51.5%)" stroke-width="1.5"></path><path d="M188 528.12L389.5 544.88" stroke="hsl(62.30000000000001, 77.2%, 51.5%)" stroke-width="1.5"></path><path d="M188 528.12L100.28 711.84" stroke="hsl(62.30000000000001, 77.2%, 51.5%)" stroke-width="1.5"></path><path d="M188 528.12L385.82 652.09" stroke="hsl(62.30000000000001, 77.2%, 51.5%)" stroke-width="1.5"></path><path d="M698.98 488.26L698.98 488.26" stroke="hsl(62.30000000000001, 77.2%, 51.5%)" stroke-width="1.5"></path><path d="M698.98 488.26L650.43 406.03" stroke="hsl(62.30000000000001, 77.2%, 51.5%)" stroke-width="1.5"></path><path d="M698.98 488.26L803 523.6" stroke="hsl(62.30000000000001, 77.2%, 51.5%)" stroke-width="1.5"></path><path d="M698.98 488.26L795.36 359.17" stroke="hsl(62.30000000000001, 77.2%, 51.5%)" stroke-width="1.5"></path><path d="M698.98 488.26L530.16 540.94" stroke="hsl(62.30000000000001, 77.2%, 51.5%)" stroke-width="1.5"></path><path d="M698.98 488.26L654.76 691.83" stroke="hsl(62.30000000000001, 77.2%, 51.5%)" stroke-width="1.5"></path><path d="M698.98 488.26L845.45 694.96" stroke="hsl(62.30000000000001, 77.2%, 51.5%)" stroke-width="1.5"></path><path d="M654.76 691.83L654.76 691.83" stroke="hsl(62.30000000000001, 77.2%, 51.5%)" stroke-width="1.5"></path><path d="M654.76 691.83L503.54 672.53" stroke="hsl(62.30000000000001, 77.2%, 51.5%)" stroke-width="1.5"></path><path d="M654.76 691.83L845.45 694.96" stroke="hsl(62.30000000000001, 77.2%, 51.5%)" stroke-width="1.5"></path><path d="M654.76 691.83L530.16 540.94" stroke="hsl(62.30000000000001, 77.2%, 51.5%)" stroke-width="1.5"></path><path d="M954.09 511.44L954.09 511.44" stroke="hsl(62.30000000000001, 77.2%, 51.5%)" stroke-width="1.5"></path><path d="M954.09 511.44L803 523.6" stroke="hsl(62.30000000000001, 77.2%, 51.5%)" stroke-width="1.5"></path><path d="M954.09 511.44L987.11 359.59" stroke="hsl(62.30000000000001, 77.2%, 51.5%)" stroke-width="1.5"></path><path d="M1426.48 -76.04L1426.48 -76.04" stroke="hsl(62.30000000000001, 77.2%, 51.5%)" stroke-width="1.5"></path><path d="M1426.48 -76.04L1428.07 66.31" stroke="hsl(62.30000000000001, 77.2%, 51.5%)" stroke-width="1.5"></path><path d="M1426.48 -76.04L1602.81 -47.3" stroke="hsl(62.30000000000001, 77.2%, 51.5%)" stroke-width="1.5"></path><path d="M1426.48 -76.04L1306.08 59.29" stroke="hsl(62.30000000000001, 77.2%, 51.5%)" stroke-width="1.5"></path><path d="M1426.48 -76.04L1563.11 110" stroke="hsl(62.30000000000001, 77.2%, 51.5%)" stroke-width="1.5"></path><path d="M1596.05 357.66L1596.05 357.66" stroke="hsl(62.30000000000001, 77.2%, 51.5%)" stroke-width="1.5"></path><path d="M1596.05 357.66L1542.14 232.05" stroke="hsl(62.30000000000001, 77.2%, 51.5%)" stroke-width="1.5"></path><path d="M1596.05 357.66L1445.35 397.81" stroke="hsl(62.30000000000001, 77.2%, 51.5%)" stroke-width="1.5"></path><path d="M1596.05 357.66L1459.88 236.44" stroke="hsl(62.30000000000001, 77.2%, 51.5%)" stroke-width="1.5"></path><path d="M1596.05 357.66L1563.11 110" stroke="hsl(62.30000000000001, 77.2%, 51.5%)" stroke-width="1.5"></path><path d="M-65.45 710.01L-65.45 710.01" stroke="hsl(62.30000000000001, 77.2%, 51.5%)" stroke-width="1.5"></path><path d="M-65.45 710.01L100.28 711.84" stroke="hsl(62.30000000000001, 77.2%, 51.5%)" stroke-width="1.5"></path><path d="M-65.45 710.01L244.81 698.09" stroke="hsl(62.30000000000001, 77.2%, 51.5%)" stroke-width="1.5"></path><path d="M-65.45 710.01L188 528.12" stroke="hsl(62.30000000000001, 77.2%, 51.5%)" stroke-width="1.5"></path><path d="M-65.45 710.01L385.82 652.09" stroke="hsl(62.30000000000001, 77.2%, 51.5%)" stroke-width="1.5"></path><path d="M-65.45 710.01L389.5 544.88" stroke="hsl(62.30000000000001, 77.2%, 51.5%)" stroke-width="1.5"></path><path d="M100.28 711.84L100.28 711.84" stroke="hsl(62.30000000000001, 77.2%, 51.5%)" stroke-width="1.5"></path><path d="M100.28 711.84L244.81 698.09" stroke="hsl(62.30000000000001, 77.2%, 51.5%)" stroke-width="1.5"></path><path d="M244.81 698.09L244.81 698.09" stroke="hsl(62.30000000000001, 77.2%, 51.5%)" stroke-width="1.5"></path><path d="M244.81 698.09L385.82 652.09" stroke="hsl(62.30000000000001, 77.2%, 51.5%)" stroke-width="1.5"></path><path d="M244.81 698.09L389.5 544.88" stroke="hsl(62.30000000000001, 77.2%, 51.5%)" stroke-width="1.5"></path><path d="M244.81 698.09L503.54 672.53" stroke="hsl(62.30000000000001, 77.2%, 51.5%)" stroke-width="1.5"></path><path d="M389.5 544.88L389.5 544.88" stroke="hsl(62.30000000000001, 77.2%, 51.5%)" stroke-width="1.5"></path><path d="M389.5 544.88L385.82 652.09" stroke="hsl(62.30000000000001, 77.2%, 51.5%)" stroke-width="1.5"></path><path d="M389.5 544.88L530.16 540.94" stroke="hsl(62.30000000000001, 77.2%, 51.5%)" stroke-width="1.5"></path><path d="M389.5 544.88L503.54 672.53" stroke="hsl(62.30000000000001, 77.2%, 51.5%)" stroke-width="1.5"></path><path d="M385.82 652.09L385.82 652.09" stroke="hsl(62.30000000000001, 77.2%, 51.5%)" stroke-width="1.5"></path><path d="M385.82 652.09L503.54 672.53" stroke="hsl(62.30000000000001, 77.2%, 51.5%)" stroke-width="1.5"></path><path d="M530.16 540.94L530.16 540.94" stroke="hsl(62.30000000000001, 77.2%, 51.5%)" stroke-width="1.5"></path><path d="M530.16 540.94L503.54 672.53" stroke="hsl(62.30000000000001, 77.2%, 51.5%)" stroke-width="1.5"></path><path d="M530.16 540.94L650.43 406.03" stroke="hsl(62.30000000000001, 77.2%, 51.5%)" stroke-width="1.5"></path><path d="M530.16 540.94L385.82 652.09" stroke="hsl(62.30000000000001, 77.2%, 51.5%)" stroke-width="1.5"></path><path d="M503.54 672.53L503.54 672.53" stroke="hsl(62.30000000000001, 77.2%, 51.5%)" stroke-width="1.5"></path><path d="M650.43 406.03L650.43 406.03" stroke="hsl(62.30000000000001, 77.2%, 51.5%)" stroke-width="1.5"></path><path d="M795.36 359.17L795.36 359.17" stroke="hsl(62.30000000000001, 77.2%, 51.5%)" stroke-width="1.5"></path><path d="M795.36 359.17L650.43 406.03" stroke="hsl(62.30000000000001, 77.2%, 51.5%)" stroke-width="1.5"></path><path d="M803 523.6L803 523.6" stroke="hsl(62.30000000000001, 77.2%, 51.5%)" stroke-width="1.5"></path><path d="M803 523.6L795.36 359.17" stroke="hsl(62.30000000000001, 77.2%, 51.5%)" stroke-width="1.5"></path><path d="M803 523.6L845.45 694.96" stroke="hsl(62.30000000000001, 77.2%, 51.5%)" stroke-width="1.5"></path><path d="M845.45 694.96L845.45 694.96" stroke="hsl(62.30000000000001, 77.2%, 51.5%)" stroke-width="1.5"></path><path d="M845.45 694.96L978.23 691.81" stroke="hsl(62.30000000000001, 77.2%, 51.5%)" stroke-width="1.5"></path><path d="M845.45 694.96L954.09 511.44" stroke="hsl(62.30000000000001, 77.2%, 51.5%)" stroke-width="1.5"></path><path d="M1010.98 255L1010.98 255" stroke="hsl(62.30000000000001, 77.2%, 51.5%)" stroke-width="1.5"></path><path d="M1010.98 255L987.11 359.59" stroke="hsl(62.30000000000001, 77.2%, 51.5%)" stroke-width="1.5"></path><path d="M1010.98 255L1111.04 201.66" stroke="hsl(62.30000000000001, 77.2%, 51.5%)" stroke-width="1.5"></path><path d="M1010.98 255L1093.19 347.46" stroke="hsl(62.30000000000001, 77.2%, 51.5%)" stroke-width="1.5"></path><path d="M1010.98 255L795.36 359.17" stroke="hsl(62.30000000000001, 77.2%, 51.5%)" stroke-width="1.5"></path><path d="M1010.98 255L954.09 511.44" stroke="hsl(62.30000000000001, 77.2%, 51.5%)" stroke-width="1.5"></path><path d="M1010.98 255L1259.09 398.36" stroke="hsl(62.30000000000001, 77.2%, 51.5%)" stroke-width="1.5"></path><path d="M987.11 359.59L987.11 359.59" stroke="hsl(62.30000000000001, 77.2%, 51.5%)" stroke-width="1.5"></path><path d="M987.11 359.59L1093.19 347.46" stroke="hsl(62.30000000000001, 77.2%, 51.5%)" stroke-width="1.5"></path><path d="M987.11 359.59L795.36 359.17" stroke="hsl(62.30000000000001, 77.2%, 51.5%)" stroke-width="1.5"></path><path d="M987.11 359.59L1111.04 201.66" stroke="hsl(62.30000000000001, 77.2%, 51.5%)" stroke-width="1.5"></path><path d="M987.11 359.59L803 523.6" stroke="hsl(62.30000000000001, 77.2%, 51.5%)" stroke-width="1.5"></path><path d="M978.23 691.81L978.23 691.81" stroke="hsl(62.30000000000001, 77.2%, 51.5%)" stroke-width="1.5"></path><path d="M978.23 691.81L1132.9 697.74" stroke="hsl(62.30000000000001, 77.2%, 51.5%)" stroke-width="1.5"></path><path d="M978.23 691.81L954.09 511.44" stroke="hsl(62.30000000000001, 77.2%, 51.5%)" stroke-width="1.5"></path><path d="M978.23 691.81L1153.47 554.77" stroke="hsl(62.30000000000001, 77.2%, 51.5%)" stroke-width="1.5"></path><path d="M1156.24 -58.48L1156.24 -58.48" stroke="hsl(62.30000000000001, 77.2%, 51.5%)" stroke-width="1.5"></path><path d="M1156.24 -58.48L1306.08 59.29" stroke="hsl(62.30000000000001, 77.2%, 51.5%)" stroke-width="1.5"></path><path d="M1111.04 201.66L1111.04 201.66" stroke="hsl(62.30000000000001, 77.2%, 51.5%)" stroke-width="1.5"></path><path d="M1111.04 201.66L1093.19 347.46" stroke="hsl(62.30000000000001, 77.2%, 51.5%)" stroke-width="1.5"></path><path d="M1111.04 201.66L1305.88 253.82" stroke="hsl(62.30000000000001, 77.2%, 51.5%)" stroke-width="1.5"></path><path d="M1111.04 201.66L1306.08 59.29" stroke="hsl(62.30000000000001, 77.2%, 51.5%)" stroke-width="1.5"></path><path d="M1093.19 347.46L1093.19 347.46" stroke="hsl(62.30000000000001, 77.2%, 51.5%)" stroke-width="1.5"></path><path d="M1093.19 347.46L1259.09 398.36" stroke="hsl(62.30000000000001, 77.2%, 51.5%)" stroke-width="1.5"></path><path d="M1153.47 554.77L1153.47 554.77" stroke="hsl(62.30000000000001, 77.2%, 51.5%)" stroke-width="1.5"></path><path d="M1153.47 554.77L1259.87 516.38" stroke="hsl(62.30000000000001, 77.2%, 51.5%)" stroke-width="1.5"></path><path d="M1153.47 554.77L1132.9 697.74" stroke="hsl(62.30000000000001, 77.2%, 51.5%)" stroke-width="1.5"></path><path d="M1153.47 554.77L1250.99 686.16" stroke="hsl(62.30000000000001, 77.2%, 51.5%)" stroke-width="1.5"></path><path d="M1153.47 554.77L1259.09 398.36" stroke="hsl(62.30000000000001, 77.2%, 51.5%)" stroke-width="1.5"></path><path d="M1132.9 697.74L1132.9 697.74" stroke="hsl(62.30000000000001, 77.2%, 51.5%)" stroke-width="1.5"></path><path d="M1132.9 697.74L1250.99 686.16" stroke="hsl(62.30000000000001, 77.2%, 51.5%)" stroke-width="1.5"></path><path d="M1132.9 697.74L1259.87 516.38" stroke="hsl(62.30000000000001, 77.2%, 51.5%)" stroke-width="1.5"></path><path d="M1132.9 697.74L954.09 511.44" stroke="hsl(62.30000000000001, 77.2%, 51.5%)" stroke-width="1.5"></path><path d="M1306.08 59.29L1306.08 59.29" stroke="hsl(62.30000000000001, 77.2%, 51.5%)" stroke-width="1.5"></path><path d="M1306.08 59.29L1428.07 66.31" stroke="hsl(62.30000000000001, 77.2%, 51.5%)" stroke-width="1.5"></path><path d="M1306.08 59.29L1305.88 253.82" stroke="hsl(62.30000000000001, 77.2%, 51.5%)" stroke-width="1.5"></path><path d="M1306.08 59.29L1459.88 236.44" stroke="hsl(62.30000000000001, 77.2%, 51.5%)" stroke-width="1.5"></path><path d="M1305.88 253.82L1305.88 253.82" stroke="hsl(62.30000000000001, 77.2%, 51.5%)" stroke-width="1.5"></path><path d="M1305.88 253.82L1259.09 398.36" stroke="hsl(62.30000000000001, 77.2%, 51.5%)" stroke-width="1.5"></path><path d="M1305.88 253.82L1459.88 236.44" stroke="hsl(62.30000000000001, 77.2%, 51.5%)" stroke-width="1.5"></path><path d="M1305.88 253.82L1445.35 397.81" stroke="hsl(62.30000000000001, 77.2%, 51.5%)" stroke-width="1.5"></path><path d="M1259.09 398.36L1259.09 398.36" stroke="hsl(62.30000000000001, 77.2%, 51.5%)" stroke-width="1.5"></path><path d="M1259.09 398.36L1259.87 516.38" stroke="hsl(62.30000000000001, 77.2%, 51.5%)" stroke-width="1.5"></path><path d="M1259.87 516.38L1259.87 516.38" stroke="hsl(62.30000000000001, 77.2%, 51.5%)" stroke-width="1.5"></path><path d="M1259.87 516.38L1250.99 686.16" stroke="hsl(62.30000000000001, 77.2%, 51.5%)" stroke-width="1.5"></path><path d="M1259.87 516.38L1447.29 561.1" stroke="hsl(62.30000000000001, 77.2%, 51.5%)" stroke-width="1.5"></path><path d="M1259.87 516.38L1445.35 397.81" stroke="hsl(62.30000000000001, 77.2%, 51.5%)" stroke-width="1.5"></path><path d="M1250.99 686.16L1250.99 686.16" stroke="hsl(62.30000000000001, 77.2%, 51.5%)" stroke-width="1.5"></path><path d="M1250.99 686.16L1449.66 684.47" stroke="hsl(62.30000000000001, 77.2%, 51.5%)" stroke-width="1.5"></path><path d="M1250.99 686.16L1447.29 561.1" stroke="hsl(62.30000000000001, 77.2%, 51.5%)" stroke-width="1.5"></path><path d="M1250.99 686.16L978.23 691.81" stroke="hsl(62.30000000000001, 77.2%, 51.5%)" stroke-width="1.5"></path><path d="M1428.07 66.31L1428.07 66.31" stroke="hsl(62.30000000000001, 77.2%, 51.5%)" stroke-width="1.5"></path><path d="M1428.07 66.31L1563.11 110" stroke="hsl(62.30000000000001, 77.2%, 51.5%)" stroke-width="1.5"></path><path d="M1459.88 236.44L1459.88 236.44" stroke="hsl(62.30000000000001, 77.2%, 51.5%)" stroke-width="1.5"></path><path d="M1459.88 236.44L1542.14 232.05" stroke="hsl(62.30000000000001, 77.2%, 51.5%)" stroke-width="1.5"></path><path d="M1445.35 397.81L1445.35 397.81" stroke="hsl(62.30000000000001, 77.2%, 51.5%)" stroke-width="1.5"></path><path d="M1445.35 397.81L1459.88 236.44" stroke="hsl(62.30000000000001, 77.2%, 51.5%)" stroke-width="1.5"></path><path d="M1445.35 397.81L1447.29 561.1" stroke="hsl(62.30000000000001, 77.2%, 51.5%)" stroke-width="1.5"></path><path d="M1447.29 561.1L1447.29 561.1" stroke="hsl(62.30000000000001, 77.2%, 51.5%)" stroke-width="1.5"></path><path d="M1447.29 561.1L1449.66 684.47" stroke="hsl(62.30000000000001, 77.2%, 51.5%)" stroke-width="1.5"></path><path d="M1447.29 561.1L1567.55 668.62" stroke="hsl(62.30000000000001, 77.2%, 51.5%)" stroke-width="1.5"></path><path d="M1449.66 684.47L1449.66 684.47" stroke="hsl(62.30000000000001, 77.2%, 51.5%)" stroke-width="1.5"></path><path d="M1449.66 684.47L1567.55 668.62" stroke="hsl(62.30000000000001, 77.2%, 51.5%)" stroke-width="1.5"></path><path d="M1449.66 684.47L1259.87 516.38" stroke="hsl(62.30000000000001, 77.2%, 51.5%)" stroke-width="1.5"></path><path d="M1449.66 684.47L1445.35 397.81" stroke="hsl(62.30000000000001, 77.2%, 51.5%)" stroke-width="1.5"></path><path d="M1449.66 684.47L1132.9 697.74" stroke="hsl(62.30000000000001, 77.2%, 51.5%)" stroke-width="1.5"></path><path d="M1602.81 -47.3L1602.81 -47.3" stroke="hsl(62.30000000000001, 77.2%, 51.5%)" stroke-width="1.5"></path><path d="M1602.81 -47.3L1563.11 110" stroke="hsl(62.30000000000001, 77.2%, 51.5%)" stroke-width="1.5"></path><path d="M1563.11 110L1563.11 110" stroke="hsl(62.30000000000001, 77.2%, 51.5%)" stroke-width="1.5"></path><path d="M1563.11 110L1542.14 232.05" stroke="hsl(62.30000000000001, 77.2%, 51.5%)" stroke-width="1.5"></path><path d="M1542.14 232.05L1542.14 232.05" stroke="hsl(62.30000000000001, 77.2%, 51.5%)" stroke-width="1.5"></path><path d="M1567.55 668.62L1567.55 668.62" stroke="hsl(62.30000000000001, 77.2%, 51.5%)" stroke-width="1.5"></path><path d="M1567.55 668.62L1445.35 397.81" stroke="hsl(62.30000000000001, 77.2%, 51.5%)" stroke-width="1.5"></path><path d="M1567.55 668.62L1596.05 357.66" stroke="hsl(62.30000000000001, 77.2%, 51.5%)" stroke-width="1.5"></path><path d="M1567.55 668.62L1250.99 686.16" stroke="hsl(62.30000000000001, 77.2%, 51.5%)" stroke-width="1.5"></path><circle r="25" cx="-85.91" cy="495.85" fill="url(&quot;#SvgjsRadialGradient1013&quot;)"></circle><circle r="25" cx="188" cy="528.12" fill="url(&quot;#SvgjsRadialGradient1013&quot;)"></circle><circle r="25" cx="698.98" cy="488.26" fill="url(&quot;#SvgjsRadialGradient1013&quot;)"></circle><circle r="25" cx="654.76" cy="691.83" fill="url(&quot;#SvgjsRadialGradient1013&quot;)"></circle><circle r="25" cx="954.09" cy="511.44" fill="url(&quot;#SvgjsRadialGradient1013&quot;)"></circle><circle r="25" cx="1426.48" cy="-76.04" fill="url(&quot;#SvgjsRadialGradient1013&quot;)"></circle><circle r="25" cx="1596.05" cy="357.66" fill="url(&quot;#SvgjsRadialGradient1013&quot;)"></circle><circle r="5" cx="-65.45" cy="710.01" fill="#d6d98b"></circle><circle r="5" cx="100.28" cy="711.84" fill="#d6d98b"></circle><circle r="5" cx="244.81" cy="698.09" fill="#d6d98b"></circle><circle r="5" cx="389.5" cy="544.88" fill="#d6d98b"></circle><circle r="5" cx="385.82" cy="652.09" fill="#d6d98b"></circle><circle r="5" cx="530.16" cy="540.94" fill="#d6d98b"></circle><circle r="5" cx="503.54" cy="672.53" fill="#d6d98b"></circle><circle r="5" cx="650.43" cy="406.03" fill="#d6d98b"></circle><circle r="5" cx="795.36" cy="359.17" fill="#d6d98b"></circle><circle r="5" cx="803" cy="523.6" fill="#d6d98b"></circle><circle r="5" cx="845.45" cy="694.96" fill="#d6d98b"></circle><circle r="5" cx="1010.98" cy="255" fill="#d6d98b"></circle><circle r="5" cx="987.11" cy="359.59" fill="#d6d98b"></circle><circle r="5" cx="978.23" cy="691.81" fill="#d6d98b"></circle><circle r="5" cx="1156.24" cy="-58.48" fill="#d6d98b"></circle><circle r="5" cx="1111.04" cy="201.66" fill="#d6d98b"></circle><circle r="5" cx="1093.19" cy="347.46" fill="#d6d98b"></circle><circle r="5" cx="1153.47" cy="554.77" fill="#d6d98b"></circle><circle r="5" cx="1132.9" cy="697.74" fill="#d6d98b"></circle><circle r="5" cx="1306.08" cy="59.29" fill="#d6d98b"></circle><circle r="5" cx="1305.88" cy="253.82" fill="#d6d98b"></circle><circle r="5" cx="1259.09" cy="398.36" fill="#d6d98b"></circle><circle r="5" cx="1259.87" cy="516.38" fill="#d6d98b"></circle><circle r="5" cx="1250.99" cy="686.16" fill="#d6d98b"></circle><circle r="5" cx="1428.07" cy="66.31" fill="#d6d98b"></circle><circle r="5" cx="1459.88" cy="236.44" fill="#d6d98b"></circle><circle r="5" cx="1445.35" cy="397.81" fill="#d6d98b"></circle><circle r="5" cx="1447.29" cy="561.1" fill="#d6d98b"></circle><circle r="5" cx="1449.66" cy="684.47" fill="#d6d98b"></circle><circle r="5" cx="1602.81" cy="-47.3" fill="#d6d98b"></circle><circle r="5" cx="1563.11" cy="110" fill="#d6d98b"></circle><circle r="5" cx="1542.14" cy="232.05" fill="#d6d98b"></circle><circle r="5" cx="1567.55" cy="668.62" fill="#d6d98b"></circle></g><defs><mask id="SvgjsMask1012"><rect width="1440" height="560" fill="#ffffff"></rect></mask><radialGradient id="SvgjsRadialGradient1013"><stop stop-color="#ffffff" offset="0.1"></stop><stop stop-color="rgba(173, 179, 23, 1)" offset="0.2"></stop><stop stop-color="rgba(173, 179, 23, 0)" offset="1"></stop></radialGradient></defs></svg>