<svg xmlns="http://www.w3.org/2000/svg" version="1.1" xmlns:xlink="http://www.w3.org/1999/xlink" xmlns:svgjs="http://svgjs.dev/svgjs" width="1280" height="720" preserveAspectRatio="none" viewBox="0 0 1280 720"><g mask="url(&quot;#SvgjsMask1009&quot;)" fill="none"><rect width="1280" height="720" x="0" y="0" fill="rgba(0, 0, 0, 1)"></rect><path d="M589.44 862.89C705 764.1 629.26 313.01 828.75 303.84 1028.25 294.67 1176.91 508.16 1307.38 512.64" stroke="rgba(188, 194, 51, 0.58)" stroke-width="2"></path><path d="M706.53 843.18C781.15 830.98 729.06 671.08 938.57 649.2 1148.09 627.32 1267.47 379.05 1402.66 368.4" stroke="rgba(188, 194, 51, 0.58)" stroke-width="2"></path><path d="M580.25 757.39C707.5 701.04 651.79 301.31 896.74 299.42 1141.69 297.53 1362.54 512.47 1529.72 515.42" stroke="rgba(188, 194, 51, 0.58)" stroke-width="2"></path><path d="M232.04 831.67C431.51 793.9 527.59 290.6 836.37 289.23 1145.15 287.86 1273.49 569.99 1440.7 577.23" stroke="rgba(188, 194, 51, 0.58)" stroke-width="2"></path><path d="M552.28 816.14C719.99 761.23 764.23 278 1003.55 273.33 1242.86 268.66 1329.09 490.54 1454.81 496.53" stroke="rgba(188, 194, 51, 0.58)" stroke-width="2"></path></g><defs><mask id="SvgjsMask1009"><rect width="1280" height="720" fill="#ffffff"></rect></mask></defs></svg>