<svg xmlns="http://www.w3.org/2000/svg" version="1.1" xmlns:xlink="http://www.w3.org/1999/xlink" xmlns:svgjs="http://svgjs.dev/svgjs" viewBox="0 0 640 800"><defs><linearGradient x1="50%" y1="0%" x2="50%" y2="100%" id="ccchaos-grad"><stop stop-color="hsl(50, 98%, 60%)" stop-opacity="1" offset="0%"></stop><stop stop-color="hsl(50, 98%, 80%)" stop-opacity="1" offset="100%"></stop></linearGradient></defs><g stroke-width="2" stroke="url(#ccchaos-grad)" fill="none" stroke-linecap="round"><path d="M326.92 100.11C336.96 99.72 347.21 100.58 357.66 102.64 368.14 105.37 378.81 109.11 389.66 113.72 400.51 118.65 411.49 124.15 422.53 130.06 433.51 135.86 444.44 141.81 455.19 147.77 465.71 153.3 475.87 158.71 485.48 163.94 494.59 168.61 502.91 173.11 510.23 177.47 519.46 183.22 530.27 194.3 531.78 200.05 531.48 205.92 528.3 219.72 527.64 227.85 528.9 233.57 531.51 239.79 535.79 246.51 542.23 253.38 550.53 260.71 560.54 268.45 572.17 276.33 584.73 284.58 597.55 293.13 610.13 301.78 621.46 310.68 630.73 319.78 637.61 328.92 641.23 338.22 641.24 347.62 638.14 357.04 631.66 366.52 622.31 376.04 611.52 385.56 599.86 394.88 588.4 403.98 578.32 413.1 570.01 422.03 563.98 430.78 560.82 439.58 560.15 448.26 561.66 456.85 565.43 465.56 570.36 474.26 575.75 483 581.57 491.96 586.54 501.06 590.12 510.34 592.48 519.94 592.71 529.8 590.69 539.95 586.86 550.44 580.84 561.24 572.9 572.29 563.54 583.6 552.79 595.05 541.07 606.52 528.74 617.97 516.02 629.17 503.23 639.91 490.53 650.16 478.12 659.6 466.15 667.95 454.61 675.32 443.6 681.27 433.1 685.61 423.08 688.68 413.48 690.01 404.22 689.61 395.32 688.08 386.6 685.08 377.98 680.8 369.55 676.13 361.08 670.83 352.5 665.27 344 660.42 335.31 656.06 326.41 652.58 317.51 650.75 308.37 650.27 299 651.25 289.62 654.14 280.24 658.24 270.9 663.23 261.6 669.32 252.38 675.54 243.31 681.48 234.31 687.33 225.53 692.12 217.02 695.55 208.64 697.93 200.6 698.52 192.96 697.26 185.47 694.6 178.43 690.1 171.86 683.94 165.42 676.6 159.45 667.93 153.94 658.2 148.46 647.84 143.36 636.86 138.59 625.52 133.67 614.12 128.94 602.7 124.33 591.43 119.35 580.49 114.35 569.86 109.28 559.6 103.69 549.82 97.97 540.42 92.12 531.37 85.81 522.77 79.46 514.42 73.16 506.26 66.68 498.43 60.48 490.67 54.7 482.89 49.15 475.31 44.28 467.6 40.23 459.72 36.72 451.93 34.17 443.89 32.63 435.57 31.65 427.28 31.59 418.66 32.4 409.72 33.43 400.78 35.03 391.5 37.06 381.9 38.82 372.29 40.66 362.6 42.47 352.88 43.7 343.18 44.82 333.46 45.85 323.81 46.38 314.2 46.98 304.7 47.78 295.36 48.43 286.12 49.54 277.1 51.24 268.37 53.21 259.81 55.99 251.6 59.61 243.82 63.75 236.25 68.78 229.15 74.67 222.59 81.05 216.27 88.17 210.5 95.9 205.32 103.91 200.33 112.35 195.89 121.08 191.99 129.82 188.15 138.7 184.75 147.62 181.73 156.33 178.57 165.02 175.63 173.64 172.84 181.97 169.67 190.25 166.47 198.5 163.19 206.45 159.35 214.44 155.32 222.51 151.09 230.35 146.28 238.34 141.3 246.52 136.24 254.56 130.78 262.86 125.43 271.46 120.34 279.98 115.25 288.84 110.71 298.07 106.92 307.27 103.59 316.88 101.27 326.91 100.11" stroke-dasharray="2 9" transform="rotate(0, 320, 400)" opacity="0.74"></path><path d="M333.55 110.71C343.34 110.31 353.3 111.11 363.38 113.04 373.47 115.63 383.69 119.2 393.97 123.62 404.22 128.37 414.5 133.72 424.7 139.49 434.79 145.21 444.69 151.12 454.27 157.08 463.57 162.69 472.37 168.21 480.52 173.6 488.18 178.47 494.97 183.18 500.77 187.74 507.9 193.82 515.51 205.29 516.25 211.06 515.94 216.78 514.78 229.8 515.91 237.32 518.45 242.54 522.36 248.23 527.84 254.36 535.23 260.6 544.21 267.29 554.58 274.38 566.19 281.58 578.39 289.15 590.56 297.04 602.25 305.01 612.6 313.27 620.86 321.77 626.85 330.3 629.79 339.03 629.4 347.92 626.21 356.83 619.94 365.86 611.06 375 600.85 384.13 589.82 393.15 578.86 402.05 569.08 410.96 560.81 419.76 554.5 428.48 550.77 437.24 549.29 445.97 549.85 454.68 552.6 463.5 556.59 472.39 561.23 481.36 566.53 490.54 571.34 499.87 575.14 509.4 578.1 519.19 579.3 529.22 578.55 539.48 576.26 550 571.94 560.73 565.76 571.61 558.17 582.61 549.11 593.63 538.89 604.53 527.9 615.27 516.26 625.64 504.29 635.43 492.16 644.67 480.07 653.01 468.19 660.23 456.55 666.5 445.27 671.39 434.41 674.76 423.91 676.98 413.8 677.63 404.05 676.72 394.61 674.87 385.42 671.75 376.42 667.54 367.61 663.08 358.88 658.13 350.17 653 341.55 648.6 332.86 644.69 324.1 641.59 315.36 640.03 306.49 639.68 297.51 640.65 288.53 643.37 279.64 647.17 270.89 651.78 262.16 657.43 253.58 663.24 245.23 668.84 236.93 674.43 228.88 679.12 221.15 682.63 213.51 685.27 206.22 686.32 199.33 685.7 192.54 683.82 186.15 680.25 180.2 675.09 174.3 668.8 168.79 661.19 163.67 652.48 158.48 643.08 153.58 632.95 148.91 622.33 144.02 611.51 139.23 600.53 134.48 589.54 129.33 578.74 124.1 568.11 118.77 557.75 112.96 547.76 107.01 538.07 100.96 528.69 94.52 519.69 88.08 510.95 81.76 502.41 75.33 494.19 69.23 486.08 63.62 478.02 58.27 470.17 53.64 462.27 49.85 454.29 46.61 446.41 44.31 438.37 43.01 430.13 42.25 421.94 42.38 413.5 43.33 404.83 44.5 396.16 46.21 387.23 48.32 378.05 50.16 368.87 52.06 359.67 53.92 350.48 55.2 341.31 56.35 332.19 57.4 323.17 57.92 314.2 58.48 305.37 59.17 296.74 59.67 288.21 60.57 279.93 61.98 271.97 63.6 264.15 65.95 256.7 69.09 249.67 72.7 242.83 77.18 236.44 82.49 230.57 88.31 224.88 94.88 219.69 102.11 215.04 109.68 210.5 117.75 206.45 126.19 202.85 134.74 199.24 143.49 195.99 152.38 193.03 161.15 189.87 169.95 186.87 178.74 183.95 187.3 180.62 195.82 177.24 204.31 173.75 212.56 169.72 220.81 165.51 229.09 161.12 237.16 156.2 245.34 151.15 253.65 146.05 261.81 140.63 270.18 135.34 278.78 130.34 287.3 125.38 296.1 120.98 305.22 117.3 314.3 114.08 323.74 111.84 333.53 110.71" stroke-dasharray="6 11" transform="rotate(4.04, 320, 400)" opacity="0.34"></path><path d="M338.68 121.31C348.2 120.9 357.78 121.63 367.41 123.45 377.03 125.89 386.67 129.28 396.26 133.5 405.81 138.07 415.26 143.23 424.51 148.84 433.61 154.46 442.4 160.29 450.76 166.23 458.83 171.87 466.31 177.48 473.07 182.98 479.38 188.03 484.84 192.94 489.34 197.71 494.81 204.11 500.3 216.1 500.82 221.98 500.98 227.69 502.4 240.22 505.36 247.29 509.13 252.13 514.2 257.38 520.69 263.04 528.84 268.76 538.29 274.89 548.81 281.42 560.24 288.01 571.95 294.98 583.37 302.29 594.16 309.65 603.51 317.31 610.8 325.25 615.95 333.22 618.27 341.43 617.53 349.84 614.28 358.26 608.23 366.88 599.8 375.66 590.18 384.44 579.74 393.18 569.3 401.87 559.85 410.58 551.65 419.27 545.16 427.93 540.94 436.65 538.73 445.39 538.42 454.17 540.19 463.07 543.22 472.07 547.04 481.18 551.71 490.46 556.18 499.92 559.98 509.55 563.28 519.38 565.18 529.41 565.45 539.6 564.46 549.96 561.64 560.43 557.08 570.95 551.22 581.48 543.85 591.91 535.23 602.09 525.74 612.01 515.42 621.46 504.54 630.24 493.32 638.42 481.9 645.67 470.48 651.8 459.1 657.02 447.92 660.93 437.01 663.43 426.34 664.91 415.98 664.97 405.95 663.65 396.16 661.57 386.65 658.4 377.37 654.31 368.27 650.1 359.32 645.51 350.49 640.82 341.76 636.86 333.07 633.38 324.41 630.64 315.78 629.32 307.14 629.1 298.49 630.05 289.85 632.6 281.4 636.11 273.16 640.36 264.93 645.6 256.93 651 249.2 656.24 241.5 661.55 234.1 666.11 227.03 669.64 220.01 672.47 213.34 673.89 207.05 673.82 200.8 672.66 194.92 669.92 189.41 665.7 183.88 660.42 178.68 653.85 173.76 646.17 168.72 637.76 163.87 628.55 159.17 618.75 154.18 608.65 149.23 598.25 144.26 587.72 138.88 577.23 133.4 566.79 127.8 556.52 121.76 546.49 115.61 536.68 109.39 527.13 102.87 517.88 96.4 508.86 90.11 500.06 83.79 491.52 77.86 483.13 72.45 474.84 67.36 466.75 63.01 458.67 59.5 450.58 56.54 442.6 54.51 434.54 53.45 426.37 52.9 418.24 53.21 409.96 54.3 401.52 55.59 393.09 57.39 384.48 59.57 375.7 61.48 366.92 63.44 358.18 65.35 349.52 66.68 340.87 67.88 332.32 68.96 323.92 69.49 315.56 70.03 307.39 70.65 299.45 71.04 291.6 71.76 284.02 72.91 276.78 74.21 269.65 76.17 262.9 78.84 256.56 81.94 250.37 85.85 244.62 90.57 239.34 95.78 234.18 101.75 229.48 108.41 225.25 115.45 221.07 123.04 217.3 131.07 213.9 139.28 210.44 147.79 207.24 156.49 204.28 165.18 201.06 173.97 197.95 182.79 194.86 191.47 191.36 200.14 187.78 208.79 184.09 217.26 179.87 225.72 175.5 234.19 170.97 242.49 165.96 250.84 160.87 259.27 155.77 267.58 150.4 276.03 145.2 284.64 140.31 293.19 135.49 301.94 131.22 310.94 127.68 319.91 124.57 329.15 122.41 338.67 121.31" stroke-dasharray="5 11" transform="rotate(8.08, 320, 400)" opacity="0.22"></path><path d="M341.75 131.91C350.94 131.49 360.09 132.15 369.18 133.85 378.27 136.15 387.25 139.36 396.09 143.37 404.87 147.74 413.42 152.7 421.67 158.13 429.77 163.61 437.46 169.34 444.63 175.22 451.53 180.86 457.81 186.51 463.35 192.1 470.7 199.83 480.68 214.06 483.35 220.64 485.11 226.63 486.91 238.5 488.17 244.65 490 248.67 492.54 252.98 496.01 257.6 500.89 262.17 506.96 267.09 514.27 272.38 522.95 277.69 532.67 283.37 543.16 289.42 554.25 295.51 565.36 301.96 575.97 308.76 585.82 315.58 594.19 322.73 600.57 330.16 604.93 337.62 606.68 345.35 605.64 353.33 602.34 361.31 596.53 369.53 588.55 377.98 579.49 386.42 569.64 394.9 559.73 403.39 550.62 411.89 542.56 420.44 535.93 429.02 531.31 437.65 528.47 446.36 527.36 455.15 528.19 464.04 530.29 473.05 533.25 482.19 537.19 491.46 541.18 500.9 544.78 510.48 548.18 520.19 550.51 530.05 551.53 540 551.58 550.02 550.03 560.08 546.92 570.07 542.64 579.97 536.9 589.67 529.9 599.02 521.99 608.04 513.12 616.51 503.54 624.25 493.48 631.38 483.02 637.56 472.36 642.65 461.59 646.9 450.84 649.92 440.21 651.63 429.68 652.48 419.37 652.06 409.31 650.43 399.42 648.2 389.77 645.04 380.38 641.13 371.12 637.19 362.06 632.97 353.18 628.72 344.39 625.19 335.72 622.11 327.17 619.72 318.64 618.63 310.2 618.52 301.85 619.45 293.49 621.83 285.41 625.08 277.61 628.98 269.8 633.81 262.28 638.8 255.07 643.69 247.87 648.71 240.98 653.09 234.44 656.6 227.9 659.55 221.7 661.27 215.85 661.67 209.97 661.11 204.43 659.13 199.19 655.78 193.87 651.46 188.8 645.88 183.94 639.22 178.89 631.82 173.97 623.57 169.12 614.67 163.95 605.38 158.77 595.69 153.54 585.75 147.9 575.74 142.16 565.67 136.3 555.65 130.07 545.76 123.76 536.01 117.43 526.45 110.88 517.11 104.45 507.96 98.24 499.01 92.09 490.28 86.38 481.71 81.23 473.26 76.43 464.98 72.39 456.77 69.19 448.61 66.53 440.55 64.78 432.47 63.96 424.36 63.62 416.29 64.1 408.15 65.32 399.93 66.72 391.72 68.59 383.41 70.83 375 72.8 366.6 74.8 358.3 76.75 350.13 78.15 341.98 79.4 333.98 80.51 326.17 81.09 318.39 81.63 310.83 82.21 303.54 82.52 296.31 83.1 289.38 84.04 282.79 85.06 276.29 86.66 270.16 88.9 264.44 91.5 258.8 94.86 253.58 98.98 248.79 103.56 244.07 108.9 239.75 114.92 235.84 121.35 231.91 128.37 228.33 135.87 225.05 143.63 221.64 151.75 218.44 160.14 215.4 168.6 212.09 177.22 208.82 185.93 205.54 194.58 201.85 203.28 198.07 211.97 194.18 220.55 189.8 229.13 185.28 237.7 180.64 246.15 175.57 254.63 170.46 263.14 165.38 271.56 160.09 280.06 154.99 288.66 150.23 297.2 145.56 305.89 141.45 314.73 138.04 323.55 135.06 332.55 132.98 341.74 131.91" stroke-dasharray="10 6" transform="rotate(12.12, 320, 400)" opacity="0.84"></path><path d="M342.43 142.51C351.23 142.08 359.9 142.68 368.41 144.26 376.91 146.41 385.21 149.43 393.26 153.23 401.24 157.39 408.91 162.14 416.19 167.36 423.33 172.67 429.99 178.27 436.11 184.05 441.99 189.66 447.24 195.31 451.8 200.95 457.86 208.86 466.07 223.62 468.45 230.5 470.42 236.8 474.01 249.07 476.74 255.29 479.63 259.31 483.28 263.55 487.84 268.04 493.67 272.45 500.54 277.16 508.46 282.18 517.48 287.17 527.26 292.51 537.54 298.19 548.15 303.87 558.57 309.9 568.33 316.26 577.24 322.63 584.66 329.33 590.15 336.33 593.79 343.34 595.02 350.65 593.72 358.23 590.41 365.81 584.83 373.67 577.29 381.8 568.78 389.93 559.52 398.13 550.12 406.41 541.39 414.69 533.5 423.07 526.82 431.53 521.88 440.02 518.5 448.63 516.66 457.34 516.63 466.13 517.82 475.05 519.92 484.09 523.07 493.22 526.45 502.49 529.69 511.86 532.98 521.3 535.5 530.82 537.01 540.37 537.82 549.91 537.29 559.39 535.4 568.71 532.52 577.88 528.28 586.75 522.8 595.19 516.46 603.25 509.1 610.71 500.92 617.41 492.18 623.51 482.9 628.68 473.26 632.8 463.37 636.16 453.34 638.39 443.28 639.43 433.2 639.74 423.22 638.94 413.4 637.1 403.66 634.8 394.11 631.71 384.79 628.01 375.56 624.38 366.53 620.54 357.7 616.72 348.94 613.59 340.35 610.9 331.94 608.83 323.55 607.95 315.3 607.94 307.2 608.86 299.1 611.08 291.33 614.06 283.88 617.63 276.42 622.06 269.28 626.66 262.47 631.19 255.64 635.9 249.14 640.09 242.96 643.53 233.82 647.51 216.96 648.57 209.15 645.34 203.88 641.9 198.8 637.28 193.87 631.59 188.71 625.19 183.61 617.93 178.53 609.96 173.14 601.56 167.69 592.67 162.17 583.44 156.28 574.05 150.3 564.5 144.23 554.89 137.85 545.32 131.45 535.8 125.08 526.4 118.57 517.13 112.24 508.01 106.19 499.05 100.28 490.26 94.83 481.61 89.98 473.1 85.52 464.74 81.81 456.46 78.93 448.28 76.59 440.18 75.12 432.12 74.53 424.09 74.4 416.1 75.04 408.1 76.38 400.09 77.87 392.1 79.81 384.07 82.08 376.01 84.1 367.96 86.15 360.07 88.14 352.37 89.59 344.67 90.9 337.18 92.07 329.91 92.69 322.66 93.26 315.67 93.84 308.96 94.11 302.3 94.58 295.94 95.35 289.93 96.77 281.17 102.82 265.59 107.77 258.79 111.72 254.4 116.4 250.36 121.76 246.66 127.52 242.89 133.9 239.41 140.79 236.16 147.98 232.74 155.59 229.47 163.52 226.32 171.6 222.86 179.9 219.41 188.35 215.94 196.82 212.06 205.38 208.09 213.98 204 222.52 199.48 231.09 194.84 239.65 190.12 248.14 185.03 256.64 179.93 265.15 174.9 273.59 169.7 282.07 164.74 290.59 160.12 299.08 155.62 307.64 151.67 316.28 148.4 324.9 145.54 333.62 143.55 342.42 142.51" stroke-dasharray="5 0" transform="rotate(16.16, 320, 400)" opacity="0.85"></path><path d="M340.64 153.11C349.01 152.67 357.16 153.21 365.07 154.67 372.95 156.67 380.56 159.5 387.85 163.08 395.07 167.01 401.91 171.54 408.32 176.54 414.6 181.66 420.38 187.09 425.61 192.74 430.67 198.27 435.13 203.89 438.97 209.53 444.16 217.55 451.54 232.76 454.08 239.92 456.64 246.52 462.48 259.29 466.71 265.66 470.62 269.74 475.27 273.99 480.77 278.44 487.36 282.77 494.84 287.35 503.15 292.2 512.29 296.99 521.96 302.08 531.87 307.47 541.9 312.85 551.55 318.54 560.42 324.55 568.39 330.56 574.89 336.88 579.56 343.51 582.53 350.13 583.3 357.07 581.77 364.3 578.48 371.52 573.14 379.04 566.04 386.86 558.06 394.68 549.37 402.61 540.5 410.65 532.15 418.69 524.48 426.86 517.8 435.13 512.62 443.43 508.79 451.85 506.32 460.39 505.5 468.97 505.83 477.68 507.07 486.49 509.4 495.36 512.09 504.32 514.83 513.33 517.83 522.36 520.32 531.41 522.07 540.4 523.38 549.32 523.6 558.11 522.68 566.66 520.96 575 518.03 582.97 513.94 590.46 509.07 597.55 503.18 604 496.43 609.69 489.1 614.81 481.11 619.03 472.64 622.27 463.85 624.84 454.76 626.38 445.51 626.87 436.15 626.75 426.76 625.66 417.42 623.69 408.09 621.38 398.87 618.42 389.81 614.97 380.8 611.66 371.96 608.2 363.32 604.8 354.72 602.06 346.3 599.74 338.07 597.97 329.86 597.28 321.82 597.37 313.96 598.26 306.1 600.32 298.59 603.06 291.42 606.32 284.24 610.37 277.39 614.58 270.86 618.75 264.3 623.15 258.05 627.1 252.11 630.43 243.25 634.49 226.7 636.66 218.88 634.41 213.56 631.77 208.36 628.02 203.25 623.27 197.9 617.84 192.57 611.56 187.23 604.54 181.57 597.06 175.86 589.04 170.08 580.61 163.98 571.95 157.8 563.04 151.58 553.98 145.13 544.89 138.7 535.76 132.36 526.66 125.97 517.64 119.82 508.7 114.01 499.87 108.38 491.16 103.26 482.57 98.75 474.11 94.65 465.76 91.3 457.52 88.76 449.38 86.73 441.32 85.54 433.34 85.19 425.42 85.25 417.54 86.04 409.71 87.48 401.91 89.04 394.13 91.03 386.38 93.34 378.66 95.39 370.94 97.47 363.44 99.49 356.16 101.01 348.89 102.38 341.85 103.6 335.07 104.3 328.3 104.92 321.8 105.51 315.61 105.98 306.5 107.93 289.95 109.95 282.56 112.84 275.52 122.35 263.07 129.04 257.56 134.11 253.88 139.79 250.41 146 247.13 152.54 243.64 159.52 240.26 166.88 236.94 174.44 233.32 182.27 229.69 190.31 226.01 198.44 221.95 206.71 217.8 215.05 213.56 223.41 208.92 231.81 204.2 240.22 199.42 248.61 194.33 257 189.27 265.39 184.32 273.75 179.25 282.11 174.43 290.47 169.97 298.81 165.65 307.17 161.87 315.53 158.74 323.89 156.02 332.26 154.11 340.63 153.11" stroke-dasharray="11 6" transform="rotate(20.200000000000003, 320, 400)" opacity="0.69"></path><path d="M336.58 163.71C344.47 163.27 352.09 163.74 359.4 165.09 366.69 166.93 373.65 169.57 380.23 172.93 386.76 176.63 392.88 180.91 398.55 185.68 404.12 190.58 409.2 195.82 413.76 201.3 418.22 206.71 422.14 212.25 425.54 217.85 430.29 225.92 437.68 241.44 440.74 248.84 444.15 255.73 452.48 269.03 458.14 275.58 462.95 279.78 468.46 284.09 474.71 288.56 481.86 292.89 489.73 297.42 498.2 302.18 507.29 306.85 516.66 311.78 526.08 316.98 535.42 322.14 544.25 327.58 552.23 333.32 559.27 339.03 564.9 345.05 568.8 351.37 571.15 357.67 571.51 364.28 569.8 371.19 566.54 378.1 561.46 385.31 554.78 392.82 547.33 400.33 539.2 407.98 530.84 415.74 522.9 423.52 515.48 431.42 508.86 439.44 503.52 447.48 499.33 455.64 496.33 463.89 494.8 472.18 494.33 480.57 494.75 489.03 496.25 497.5 498.2 506.02 500.35 514.54 502.91 523.04 505.18 531.48 506.95 539.81 508.5 548.02 509.21 556.02 508.99 563.73 508.19 571.19 506.32 578.23 503.43 584.75 499.87 590.88 495.34 596.36 489.95 601.09 484.01 605.3 477.36 608.66 470.13 611.12 462.55 613.01 454.56 613.97 446.3 614 437.85 613.55 429.26 612.27 420.61 610.24 411.9 607.99 403.22 605.21 394.61 602.03 386.02 599.04 377.54 595.97 369.21 592.97 360.9 590.61 352.74 588.63 344.76 587.14 336.8 586.63 329 586.79 321.38 587.66 313.76 589.58 306.49 592.08 299.54 595.03 292.58 598.72 285.94 602.56 279.6 606.38 273.21 610.45 267.11 614.15 261.28 617.34 252.54 621.4 235.96 624.42 227.98 623.03 222.52 621.09 217.13 618.15 211.8 614.25 206.22 609.75 200.64 604.4 195.03 598.33 189.14 591.79 183.2 584.68 177.2 577.1 170.94 569.25 164.65 561.08 158.37 552.69 151.92 544.2 145.55 535.59 139.34 526.95 133.15 518.31 127.25 509.7 121.73 501.15 116.45 492.67 111.7 484.27 107.57 475.98 103.86 467.77 100.88 459.65 98.68 451.65 96.98 443.71 96.06 435.86 95.93 428.11 96.17 420.39 97.09 412.74 98.62 405.18 100.25 397.64 102.27 390.16 104.59 382.76 106.67 375.36 108.77 368.21 110.82 361.33 112.4 354.43 113.83 347.81 115.12 341.45 116.24 332.07 117.7 314.77 118.45 306.9 119.31 299.35 123.25 285.78 126.67 279.71 131.15 273.81 143.7 262.95 151.67 257.82 157.49 254.22 163.78 250.7 170.47 247.2 177.4 243.41 184.64 239.59 192.14 235.72 199.77 231.5 207.59 227.2 215.53 222.82 223.53 218.1 231.61 213.33 239.72 208.53 247.86 203.49 256.01 198.5 264.14 193.65 272.28 188.73 280.41 184.07 288.5 179.79 296.6 175.66 304.66 172.05 312.68 169.08 320.7 166.49 328.67 164.67 336.57 163.71" stroke-dasharray="3 10" transform="rotate(24.24, 320, 400)" opacity="0.61"></path><path d="M330.69 174.3C338.09 173.87 345.17 174.28 351.92 175.51 358.64 177.2 365.01 179.65 370.99 182.78 376.93 186.24 382.45 190.27 387.55 194.78 392.58 199.44 397.16 204.46 401.28 209.74 405.36 215 408.99 220.42 412.21 225.93 415.44 231.28 418.33 236.65 420.93 242.01 424.97 249.67 433.22 264.38 438.01 271.47 441.88 275.93 446.17 280.42 450.98 284.95 456.55 289.28 462.72 293.69 469.51 298.22 477.01 302.61 485.05 307.15 493.5 311.87 502.34 316.5 511.29 321.34 520.09 326.41 528.68 331.43 536.66 336.7 543.73 342.23 549.89 347.72 554.68 353.5 557.87 359.56 559.67 365.59 559.67 371.92 557.82 378.54 554.62 385.15 549.79 392.06 543.53 399.26 536.58 406.47 528.99 413.81 521.16 421.27 513.64 428.74 506.5 436.33 500 444.03 494.57 451.73 490.11 459.54 486.66 467.43 484.51 475.33 483.33 483.29 482.98 491.28 483.66 499.26 484.86 507.24 486.35 515.16 488.35 523.02 490.24 530.77 491.84 538.35 493.41 545.77 494.36 552.94 494.59 559.76 493.91 569.38 487.33 585.49 481.5 591.62 476.85 595.01 471.48 597.61 465.5 599.4 459.15 600.7 452.33 601.19 445.14 600.87 437.74 600.19 430.08 598.8 422.27 596.78 414.36 594.64 406.38 592.07 398.39 589.19 390.37 586.54 382.39 583.85 374.5 581.24 366.61 579.24 358.82 577.57 351.17 576.34 343.53 575.99 336.02 576.22 328.65 577.06 321.29 578.84 314.24 581.11 307.48 583.78 300.71 587.12 294.22 590.59 287.99 594.07 281.72 597.8 275.69 601.25 269.89 604.26 261.15 608.24 244.32 611.89 236.09 611.21 230.45 609.89 224.86 607.66 219.29 604.55 213.5 600.9 207.69 596.45 201.85 591.28 195.78 585.67 189.67 579.47 183.53 572.77 177.21 565.79 170.9 558.42 164.63 550.78 158.29 542.99 152.08 535.02 146.08 526.95 140.17 518.83 134.59 510.68 129.43 502.54 124.54 494.41 120.19 486.33 116.47 478.33 113.17 470.37 110.57 462.49 108.72 454.72 107.33 446.99 106.67 439.35 106.75 431.82 107.17 424.32 108.2 416.91 109.8 409.61 111.48 402.32 113.53 395.12 115.85 388.04 117.94 380.95 120.06 374.14 122.13 367.6 123.75 361.06 125.25 354.79 126.6 348.8 127.85 339.96 129.47 323.69 130.2 316.28 130.9 309.13 134.04 296.13 136.82 290.23 140.49 284.41 151.08 273.44 157.97 268.13 163.04 264.41 168.59 260.72 174.55 257.04 180.76 253.08 187.32 249.09 194.16 245.05 201.18 240.69 208.41 236.27 215.81 231.8 223.31 227.04 230.92 222.25 238.59 217.48 246.32 212.5 254.08 207.62 261.84 202.91 269.63 198.15 277.4 193.68 285.12 189.58 292.86 185.65 300.54 182.23 308.15 179.42 315.76 176.96 323.28 175.23 330.68 174.3" stroke-dasharray="1 7" transform="rotate(28.28, 320, 400)" opacity="0.33"></path><path d="M323.62 184.9C330.52 184.47 337.09 184.82 343.32 185.94 349.54 187.48 355.4 189.74 360.89 192.63 366.35 195.85 371.43 199.62 376.12 203.85 380.78 208.26 385.05 213.03 388.95 218.08 392.85 223.15 396.42 228.4 399.68 233.78 403.02 239.04 406.13 244.36 409.09 249.71 412.26 254.86 415.39 260 418.58 265.11 422.15 270 425.92 274.86 429.98 279.71 434.6 284.34 439.63 288.97 445.13 293.63 451.26 298.1 457.9 302.63 465.01 307.24 472.66 311.71 480.66 316.3 488.9 321.03 497.35 325.66 505.73 330.47 513.84 335.46 521.62 340.39 528.73 345.54 534.92 350.92 540.22 356.25 544.24 361.84 546.78 367.67 548.08 373.48 547.77 379.56 545.82 385.91 542.69 392.25 538.12 398.86 532.28 405.76 525.82 412.65 518.76 419.67 511.44 426.79 504.35 433.91 497.53 441.14 491.2 448.45 485.75 455.76 481.1 463.15 477.3 470.58 474.64 478 472.82 485.45 471.76 492.89 471.68 500.29 472.12 507.64 472.92 514.88 474.3 522.04 475.7 529.04 476.97 535.81 478.85 545.57 479.76 562.93 478.31 570.22 475.53 576.42 465.6 584.98 458.68 587.17 453.52 588.01 447.85 588.13 441.75 587.56 435.43 586.73 428.78 585.31 421.9 583.37 414.88 581.38 407.71 579.05 400.44 576.48 393.12 574.17 385.77 571.84 378.42 569.61 371.06 567.93 363.73 566.56 356.48 565.57 349.23 565.36 342.05 565.65 334.97 566.46 327.89 568.1 321.07 570.16 314.49 572.56 307.9 575.56 301.53 578.7 295.38 581.83 289.19 585.24 283.19 588.4 277.36 591.21 271.46 593.96 265.69 596.14 260.03 597.68 251.41 599.12 234.23 597.41 225.56 594.2 219.61 591.32 213.63 587.69 207.64 583.38 201.47 578.66 195.29 573.35 189.12 567.54 182.83 561.42 176.59 554.9 170.46 548.07 164.32 541.05 158.36 533.8 152.66 526.39 147.1 518.89 141.91 511.3 137.16 503.68 132.7 496.03 128.79 488.39 125.5 480.78 122.61 473.19 120.4 465.65 118.89 458.2 117.8 450.76 117.39 443.42 117.66 436.17 118.23 428.95 119.37 421.82 121.02 414.81 122.74 407.8 124.79 400.9 127.1 394.13 129.19 387.35 131.32 380.86 133.4 374.64 135.85 365.43 139.44 348.39 140.65 340.54 141.28 332.94 142.64 318.99 143.75 312.61 145.19 306.35 150.39 294.67 154.34 289.14 159.17 283.47 171.73 272.17 179.33 266.39 184.78 262.28 190.59 258.14 196.71 253.97 203.02 249.51 209.57 245.01 216.32 240.49 223.19 235.73 230.21 230.96 237.32 226.25 244.51 221.38 251.76 216.64 259.03 212.08 266.34 207.52 273.64 203.25 280.9 199.35 288.18 195.63 295.41 192.4 302.54 189.74 309.68 187.43 316.72 185.79 323.61 184.9" stroke-dasharray="3 7" transform="rotate(32.32, 320, 400)" opacity="0.53"></path><path d="M316.16 195.5C322.55 195.07 328.65 195.37 334.43 196.37 342.92 198.8 358.24 207.22 365.07 212.92 369.51 217.05 373.65 221.55 377.51 226.34 381.41 231.18 385.07 236.22 388.53 241.42 392.12 246.55 395.59 251.77 399.01 257.04 402.66 262.17 406.38 267.31 410.21 272.45 414.42 277.4 418.87 282.35 423.61 287.28 428.84 292.03 434.44 296.78 440.44 301.54 446.93 306.14 453.82 310.78 461.04 315.47 468.62 320.03 476.41 324.69 484.27 329.45 492.19 334.1 499.91 338.9 507.26 343.85 514.22 348.74 520.46 353.8 525.79 359.06 531.93 366.98 536.11 383.88 533.8 392.89 530.77 398.97 526.46 405.29 521.02 411.86 515.04 418.43 508.51 425.1 501.69 431.84 495.04 438.58 488.56 445.4 482.44 452.27 477.05 459.13 472.29 466.04 468.23 472.94 465.14 479.83 462.78 486.7 461.11 493.51 460.32 500.28 460.04 506.94 460.15 513.46 460.86 519.87 461.7 526.08 462.52 532.04 463.98 540.55 465.12 555.36 464.3 561.4 458.83 569.75 443.36 574.92 436 574.12 430.73 573.22 425.09 571.83 419.14 570.01 413.06 568.21 406.75 566.15 400.27 563.9 393.72 561.92 387.06 559.94 380.33 558.06 373.57 556.7 366.78 555.6 359.98 554.83 353.19 554.75 346.4 555.09 339.64 555.86 332.88 557.37 326.31 559.23 319.92 561.37 313.52 564.06 307.29 566.86 301.21 569.66 295.1 572.74 289.13 575.62 283.27 578.21 277.35 580.79 271.51 582.9 265.75 584.47 259.9 585.8 254.08 586.48 248.3 586.48 242.39 586.11 236.48 585.02 230.58 583.23 224.54 581.02 218.49 578.14 212.44 574.62 206.28 570.73 200.14 566.27 194.04 561.31 187.9 556.06 181.85 550.39 175.96 544.37 170.11 538.16 164.49 531.68 159.17 525 154.03 518.2 149.28 511.26 144.98 504.24 140.99 497.17 137.54 490.05 134.69 482.94 132.22 475.81 130.38 468.7 129.2 461.65 128.4 454.6 128.23 447.62 128.67 440.72 129.38 433.84 130.6 427.04 132.29 420.35 134.02 413.66 136.07 407.08 138.36 400.62 140.44 394.16 142.56 387.97 144.64 382.04 147.15 373.27 150.98 357.01 152.34 349.5 153.11 342.2 154.53 328.68 155.5 322.41 156.66 316.21 160.85 304.45 164.07 298.78 168.03 292.94 178.54 281.22 185.03 275.23 189.7 271 194.75 266.75 200.11 262.47 205.65 257.96 211.46 253.43 217.49 248.9 223.65 244.17 229.99 239.48 236.45 234.86 243 230.14 249.64 225.56 256.32 221.19 263.05 216.84 269.8 212.78 276.51 209.1 283.27 205.59 289.97 202.55 296.59 200.06 303.22 197.89 309.75 196.35 316.15 195.5" stroke-dasharray="7 6" transform="rotate(36.36, 320, 400)" opacity="0.67"></path><path d="M309.12 206.1C317.86 205.79 334.02 209 341.42 212.37 351.11 218.08 359.8 225.63 367.61 234.53 375.71 243.72 383.38 253.68 390.94 264.04 399.49 273.99 408.65 284.07 418.77 294.16 430.48 303.62 443.43 313.15 457.38 322.79 472.2 331.94 486.9 341.43 500.31 351.33 512 360.97 520.33 371.23 524.15 382.17 524.63 387.61 523.84 393.24 521.78 399.07 518.86 404.89 514.81 410.92 509.77 417.15 504.25 423.38 498.22 429.68 491.9 436.01 485.7 442.34 479.58 448.72 473.72 455.1 463.85 467.84 456.21 480.54 451 492.89 448.93 505.01 448.44 516.5 448.68 526.95 450.14 536.76 450.72 545.12 449.8 551.61 448.36 557.09 444.75 560.44 439.01 561.53 432.39 561.75 423.89 560.06 413.91 556.76 403.44 553.72 391.94 550.14 379.82 546.62 373.71 545.54 367.49 544.69 361.2 544.11 354.9 544.14 348.54 544.52 342.15 545.26 335.75 546.64 329.46 548.31 323.3 550.22 317.12 552.61 311.04 555.09 305.07 557.57 293.04 563.27 281.28 568.01 269.75 571.21 257.92 573.76 246.11 573.95 234.35 571.7 222.26 568.11 210.21 562.11 198.44 554.06 186.71 544.97 175.64 534.31 165.72 522.58 156.61 510.36 149.25 497.52 144.07 484.44 140.28 471.24 138.84 458.03 139.78 445.04 140.6 438.55 141.89 432.12 143.6 425.79 145.34 419.46 147.36 413.21 149.61 407.07 151.67 400.93 153.77 395.04 155.85 389.39 157.58 383.73 159.24 378.31 160.79 373.13 162.69 362.71 164.3 353.16 165.84 344.45 166.44 335.52 167.7 327.25 169.92 319.55 172.29 311.38 176.19 303.51 181.63 295.84 187.79 287.44 195.53 279 204.58 270.56 214.29 261.35 225.04 252.19 236.47 243.33 248.25 234.21 260.43 225.88 272.67 218.83 278.83 215.54 284.98 212.71 291.06 210.38 297.16 208.35 303.19 206.91 309.11 206.1" stroke-dasharray="6 8" transform="rotate(40.400000000000006, 320, 400)" opacity="0.47"></path><path d="M303.27 216.7C314.21 216.19 324.34 218.14 333.64 222.27 342.98 227.46 351.64 234.41 359.75 242.69 368.21 251.32 376.53 260.79 384.99 270.74 394.35 280.44 404.38 290.37 415.25 300.35 427.34 309.86 440.33 319.45 453.85 329.12 467.75 338.38 481.12 347.88 492.93 357.69 502.99 367.26 509.85 377.31 512.62 387.89 512.12 398.38 507.29 409.52 498.51 421.27 488.14 433.03 476.5 444.87 465.02 456.61 455.34 468.32 447.39 479.81 441.43 490.81 438.2 501.58 436.46 511.59 435.58 520.5 436.1 532.3 432.75 546.52 426.81 548.29 421.64 548.23 414.73 546.58 406.34 543.64 397.52 541.09 387.54 538.14 376.72 535.27 365.78 534.1 354.21 533.83 342.22 534.66 330.22 537.72 318.38 541.5 306.76 545.56 295.08 550.63 283.48 554.92 272 557.93 260.33 560.54 248.65 561.15 237.05 559.66 225.29 557.11 213.68 552.4 202.49 545.8 191.52 538.26 181.35 529.18 172.4 518.97 164.33 508.26 157.96 496.8 153.67 484.95 150.63 472.94 149.74 460.77 150.98 448.68 152.93 436.59 156.36 424.65 160.86 413.04 164.68 401.42 168.52 390.65 172.06 380.71 174.18 370.7 176.02 361.43 177.73 352.85 178.48 344.06 179.71 335.79 181.67 327.97 183.58 319.71 186.75 311.67 191.24 303.78 196.23 295.25 202.66 286.73 210.33 278.24 218.53 269.16 227.8 260.22 237.81 251.67 248.15 242.99 258.98 235.14 270.01 228.55 281.16 222.63 292.33 218.54 303.26 216.7" stroke-dasharray="11 6" transform="rotate(44.44, 320, 400)" opacity="0.24"></path><path d="M299.27 227.3C309.37 226.77 318.95 228.48 327.98 232.18 337.07 236.87 345.79 243.2 354.23 250.82 363.03 258.84 371.92 267.74 381.08 277.18 391.01 286.51 401.57 296.15 412.79 305.91 424.87 315.32 437.49 324.85 450.24 334.44 462.99 343.7 474.9 353.14 485.11 362.79 493.59 372.25 499.1 382.06 500.95 392.23 500.04 402.34 495.37 412.93 487.26 423.94 477.78 434.95 467.08 445.89 456.32 456.58 446.96 467.22 438.86 477.5 432.36 487.18 428.17 496.63 425.31 505.24 423.35 512.74 420.54 528.21 406.69 533.96 396.77 530.69 389.36 528.64 380.76 526.29 371.17 524.02 361.47 523.26 350.97 523.23 339.84 524.07 328.7 526.81 317.49 530.12 306.32 533.64 295.11 538.1 283.87 541.9 272.66 544.66 261.36 547.22 250.06 548.11 238.88 547.21 227.7 545.5 216.78 541.89 206.39 536.55 196.36 530.43 187.21 522.83 179.33 514.07 172.32 504.85 166.96 494.78 163.52 484.21 161.18 473.45 160.78 462.4 162.28 451.28 164.35 440.15 167.74 429.04 172.12 418.12 175.87 407.19 179.68 396.95 183.27 387.41 185.57 377.79 187.64 368.77 189.56 360.31 190.52 351.65 191.81 343.39 193.65 335.46 195.27 327.16 197.91 319.01 201.65 310.99 205.68 302.45 210.98 293.94 217.41 285.53 224.25 276.68 232.12 268.05 240.78 259.89 249.71 251.71 259.23 244.37 269.08 238.25 279.03 232.78 289.16 229.01 299.27 227.3" stroke-dasharray="8 5" transform="rotate(48.48, 320, 400)" opacity="0.46"></path><path d="M297.54 237.9C306.89 237.36 315.97 238.84 324.77 242.13 333.65 246.31 342.41 252.02 351.12 258.96 360.15 266.33 369.41 274.58 379.01 283.42 389.18 292.27 399.9 301.48 411.07 310.88 422.75 320.06 434.66 329.38 446.37 338.76 457.79 347.9 468.18 357.18 476.8 366.59 483.8 375.84 488.1 385.34 489.17 395.07 487.93 404.74 483.45 414.73 476 424.97 467.4 435.22 457.62 445.23 447.63 454.86 438.68 464.45 430.61 473.55 423.77 481.96 418.82 490.17 415.01 497.51 412.05 503.76 407.17 516.37 394.19 520.62 385.72 517.92 379.44 516.37 372 514.58 363.53 512.86 354.97 512.47 345.51 512.63 335.28 513.47 325.04 515.92 314.57 518.79 304 521.79 293.43 525.66 282.73 528.98 272.04 531.44 261.34 533.86 250.65 534.89 240.16 534.41 229.79 533.35 219.76 530.64 210.36 526.39 201.4 521.51 193.37 515.24 186.61 507.85 180.67 500.03 176.28 491.33 173.64 482.02 171.95 472.54 171.98 462.63 173.69 452.53 175.83 442.4 179.15 432.15 183.37 421.96 187.03 411.76 190.79 402.07 194.4 392.93 196.87 383.72 199.15 374.96 201.29 366.64 202.5 358.13 203.93 349.92 205.77 341.97 207.26 333.69 209.55 325.53 212.74 317.5 216.04 309.06 220.42 300.68 225.82 292.47 231.48 283.95 238.12 275.73 245.55 268.02 253.19 260.38 261.48 253.58 270.23 247.96 279.05 242.94 288.2 239.49 297.54 237.9" stroke-dasharray="7 6" transform="rotate(52.52, 320, 400)" opacity="0.12"></path><path d="M298.29 248.5C306.93 247.95 315.55 249.21 324.11 252.1 332.74 255.78 341.45 260.88 350.27 267.12 359.34 273.8 368.72 281.36 378.41 289.52 388.5 297.77 398.98 306.45 409.71 315.35 420.66 324.14 431.58 333.1 442.05 342.14 452.04 351.01 460.89 360.01 468 369.07 473.64 378.02 476.86 387.12 477.28 396.33 475.79 405.51 471.55 414.86 464.75 424.31 456.98 433.75 448.11 442.84 438.92 451.45 430.47 460 422.59 467.99 415.59 475.25 410.12 482.33 405.56 488.54 401.75 493.72 394.64 504.04 381.35 507.45 373.87 505.36 368.42 504.29 361.9 503.02 354.4 501.8 346.82 501.72 338.34 502.05 329.03 502.87 319.72 505.05 310.08 507.51 300.26 510.03 290.47 513.33 280.52 516.18 270.56 518.3 260.67 520.5 250.83 521.56 241.25 521.36 231.87 520.77 222.91 518.77 214.63 515.42 206.83 511.58 199.97 506.49 194.32 500.32 189.43 493.8 185.95 486.38 184.06 478.3 182.94 470.05 183.33 461.29 185.18 452.21 187.37 443.09 190.59 433.75 194.63 424.3 198.17 414.85 201.85 405.75 205.44 397.04 208.05 388.28 210.52 379.82 212.87 371.68 214.35 363.4 215.99 355.31 217.91 347.42 219.41 339.28 221.52 331.23 224.35 323.31 227.14 315.1 230.84 306.98 235.41 299.08 240.13 291 245.73 283.26 252.12 276.07 258.63 269.02 265.83 262.78 273.59 257.66 281.38 253.1 289.65 249.96 298.29 248.5" stroke-dasharray="2 4" transform="rotate(56.56, 320, 400)" opacity="0.63"></path><path d="M301.43 259.09C309.41 258.55 317.55 259.6 325.79 262.11 334.1 265.31 342.61 269.8 351.31 275.34 360.2 281.31 369.39 288.12 378.83 295.54 388.5 303.11 398.41 311.14 408.36 319.43 418.32 327.69 428.04 336.16 437.13 344.71 445.65 353.17 452.99 361.73 458.69 370.33 463.11 378.85 465.4 387.46 465.28 396.08 463.63 404.69 459.65 413.35 453.49 421.98 446.54 430.61 438.56 438.78 430.18 446.41 422.32 453.99 414.75 460.95 407.79 467.17 402.01 473.26 396.92 478.51 392.45 482.81 383.19 491.39 368.81 494.49 361.92 493.04 357.01 492.41 351.2 491.62 344.51 490.83 337.77 491.01 330.18 491.48 321.79 492.27 313.4 494.19 304.66 496.27 295.72 498.35 286.83 501.12 277.79 503.5 268.77 505.28 259.85 507.2 251.04 508.19 242.54 508.14 234.29 507.85 226.5 506.38 219.43 503.75 212.82 500.77 207.12 496.67 202.56 491.57 198.66 486.19 196.02 479.95 194.78 473.01 194.15 465.92 194.83 458.27 196.78 450.2 198.96 442.09 202.05 433.65 205.88 424.99 209.28 416.32 212.85 407.84 216.39 399.61 219.1 391.34 221.73 383.26 224.27 375.39 226.02 367.42 227.89 359.56 229.96 351.86 231.57 343.97 233.65 336.16 236.29 328.49 238.78 320.63 242 312.89 245.98 305.42 249.98 297.87 254.77 290.68 260.31 284.07 265.89 277.63 272.17 271.98 279.07 267.36 285.97 263.26 293.45 260.43 301.43 259.09" stroke-dasharray="1 11" transform="rotate(60.599999999999994, 320, 400)" opacity="0.73"></path><path d="M306.61 269.69C313.97 269.15 321.58 270.02 329.39 272.16 337.26 274.9 345.39 278.78 353.73 283.63 362.18 288.88 370.89 294.92 379.75 301.55 388.71 308.37 397.75 315.65 406.66 323.23 415.44 330.84 423.82 338.67 431.48 346.61 438.55 354.52 444.47 362.52 448.89 370.53 452.22 378.51 453.72 386.52 453.19 394.48 451.45 402.43 447.76 410.36 442.23 418.16 436.06 425.96 428.95 433.25 421.4 439.96 414.19 446.64 407.06 452.68 400.31 458 391.73 465.45 378.18 476.04 372.63 479.07 367.87 481.15 357.18 481.81 350.59 480.97 346.02 480.74 340.72 480.37 334.69 479.96 328.64 480.35 321.85 480.91 314.35 481.67 306.86 483.35 299.06 485.09 291.1 486.77 283.18 489.04 275.17 490.97 267.22 492.39 259.39 494.01 251.73 494.85 244.42 494.85 237.36 494.74 230.8 493.64 224.95 491.55 217.22 487.59 207.43 474.75 205.8 466.24 205.59 460.22 206.49 453.6 208.48 446.51 210.6 439.38 213.53 431.83 217.14 423.97 220.36 416.1 223.79 408.29 227.25 400.6 230.01 392.9 232.75 385.27 235.44 377.78 237.45 370.21 239.55 362.71 241.8 355.33 243.59 347.82 245.73 340.39 248.31 333.11 250.67 325.71 253.62 318.48 257.19 311.55 260.7 304.59 264.91 298.03 269.78 292.04 274.64 286.25 280.18 281.19 286.34 277.08 292.49 273.42 299.26 270.9 306.61 269.69" stroke-dasharray="1 7" transform="rotate(64.64, 320, 400)" opacity="0.69"></path><path d="M313.27 280.29C319.99 279.76 327.02 280.45 334.28 282.26 341.58 284.55 349.13 287.86 356.86 292.03 364.65 296.55 372.62 301.8 380.62 307.63 388.63 313.64 396.59 320.11 404.28 326.89 411.77 333.74 418.77 340.83 425 348.04 430.69 355.26 435.31 362.58 438.59 369.89 441 377.2 441.85 384.52 441.02 391.74 439.26 398.97 435.88 406.12 430.97 413.09 425.56 420.06 419.3 426.5 412.58 432.37 406.06 438.21 399.49 443.44 393.09 448 384.58 454.4 370.11 463.49 363.88 466.17 358.39 468.17 346.99 469.43 340.52 469.16 333.67 469.27 317.2 470.04 307.54 471.07 300.91 472.52 294.05 473.95 287.11 475.27 280.22 477.09 273.29 478.59 266.49 479.67 259.8 480.95 253.33 481.61 247.25 481.58 238.72 481.09 225.25 475.82 220.84 471.05 218 465.3 217.77 450.24 220.26 441.23 222.31 435.03 225.05 428.37 228.39 421.31 231.42 414.26 234.67 407.16 238 400.09 240.77 393.01 243.57 385.94 246.36 378.94 248.58 371.89 250.88 364.86 253.31 357.94 255.31 350.94 257.58 344.02 260.18 337.26 262.54 330.45 265.36 323.83 268.69 317.51 271.9 311.23 275.7 305.35 280.07 300.01 284.41 294.87 289.35 290.41 294.89 286.81 300.42 283.59 306.54 281.37 313.27 280.29" stroke-dasharray="10 8" transform="rotate(68.68, 320, 400)" opacity="0.23"></path><path d="M320.66 290.89C332.83 290.33 346.2 293.84 360.02 300.55 373.88 308.45 387.96 318.81 400.95 330.55 413 342.65 422.54 355.65 427.83 368.69 430.42 381.78 427.78 394.85 419.72 407.13 410.09 419.41 398.21 429.64 386.07 437.52 375.58 445.28 365.7 450.63 356.59 453.51 349 456.6 341.03 457.84 332.24 457.63 323.78 458.85 313.72 459.74 302.09 460.47 290.46 463.5 278.47 465.88 267.06 467.14 256.05 469.2 246.27 468.97 238.77 466.19 232.36 463.15 228.83 457.3 228.77 448.98 229.62 440.41 233.36 429.67 239.65 417.21 244.91 404.74 250.9 391.81 256.98 379.03 261.25 366.16 266.07 353.29 271.65 341.06 276.29 328.83 282.55 317.47 290.63 307.99 298.48 299.27 308.49 293.21 320.66 290.89" stroke-dasharray="2 6" transform="rotate(72.72, 320, 400)" opacity="0.27"></path><path d="M327.99 301.49C338.82 300.89 350.56 303.7 362.49 309.22 374.35 315.71 386.05 324.39 396.45 334.35 405.95 344.69 413.1 355.92 416.64 367.25 418.16 378.66 415.49 390.04 408.47 400.68 400.26 411.33 389.99 420.14 379.19 426.93 369.4 433.68 359.79 438.45 350.7 441.25 342.72 444.34 334.57 445.97 326.07 446.39 317.88 447.96 308.71 449.11 298.62 449.87 288.53 452.36 278.53 454.11 269.32 454.82 256.61 456.05 241.33 448.42 240.7 439.01 241.77 431.88 245.25 422.75 250.9 411.93 255.74 401.1 261.4 389.69 267.29 378.28 271.8 366.87 276.84 355.44 282.49 344.64 287.31 333.95 293.39 324.13 300.88 316.03 308.12 308.6 317.15 303.46 327.99 301.49" stroke-dasharray="9 7" transform="rotate(76.76, 320, 400)" opacity="0.42"></path><path d="M334.43 312.09C343.86 311.47 353.82 313.65 363.68 318.05 373.42 323.22 382.71 330.26 390.64 338.44 397.82 346.98 402.91 356.35 405.04 365.88 405.76 375.51 403.2 385.16 397.21 394.19 390.38 403.22 381.71 410.74 372.38 416.59 363.6 422.46 354.68 426.77 346.05 429.54 338.16 432.61 330.18 434.53 322.16 435.44 314.39 437.23 306.12 438.52 297.5 439.27 288.87 441.28 280.71 442.48 273.5 442.74 263.62 443.28 252.7 436.47 252.89 428.59 254.05 422.68 257.18 415.02 262.16 405.83 266.51 396.64 271.71 386.83 277.27 376.99 281.82 367.18 286.91 357.36 292.49 348.14 297.41 339.09 303.29 330.85 310.22 324.13 316.92 317.97 325 313.73 334.43 312.09" stroke-dasharray="2 3" transform="rotate(80.80000000000001, 320, 400)" opacity="0.17"></path><path d="M339.28 322.69C347.22 322.09 355.33 323.7 363.09 327.08 370.72 331.02 377.73 336.5 383.44 342.96 388.6 349.71 392 357.22 393.08 364.94 393.25 372.75 390.91 380.63 385.96 388.09 380.43 395.55 373.35 401.84 365.57 406.85 358.06 411.9 350.19 415.78 342.43 418.49 335.1 421.46 327.7 423.55 320.43 424.78 313.33 426.64 306.06 427.97 298.85 428.68 288.39 430.61 272.18 430.84 267.44 428.34 264.67 424.64 267.81 410.07 273.41 399.34 277.21 391.75 281.84 383.63 286.89 375.47 291.26 367.35 296.17 359.26 301.48 351.72 306.33 344.35 311.9 337.7 318.16 332.33 324.27 327.4 331.34 324.01 339.28 322.69" stroke-dasharray="8 7" transform="rotate(84.84, 320, 400)" opacity="0.58"></path><path d="M342.01 333.29C354.8 332.68 366.85 338.55 374.88 348.03 381.49 358.31 382.06 370.96 374.7 382.81 365.91 394.64 352.83 403.28 339.57 408.22 327.15 413.92 314.18 417.38 302.54 418.08 286.71 420.65 276.64 408.93 284.67 392.89 290.63 380.86 299.51 367.32 309.36 355.52 318.06 344.29 329.22 335.78 342.01 333.29" stroke-dasharray="7 1" transform="rotate(88.88, 320, 400)" opacity="0.25"></path><path d="M342.32 343.89C351.91 343.24 360.13 347.17 365.03 353.76 369.18 360.84 369.03 369.87 363.45 378.69 357.08 387.51 347.35 394.4 337.18 398.77 327.31 403.62 316.99 406.76 308.14 407.48 296.34 408.94 289.74 398.97 295.92 386.92 300.68 377.99 307.96 368.13 316.07 359.69 323.59 351.64 332.72 345.62 342.32 343.89" stroke-dasharray="9 7" transform="rotate(92.92, 320, 400)" opacity="0.43"></path><path d="M340.17 354.48C352.9 353.86 359.21 364.31 352.19 376.03 343.82 387.74 327.06 396.21 315.05 396.88 303.04 399.64 299.63 393.67 307.17 381.85 313.49 370.02 327.42 357.07 340.17 354.48" stroke-dasharray="11 2" transform="rotate(96.96, 320, 400)" opacity="0.49"></path></g></svg>